M48
;Layer_Color=9474304
;FILE_FORMAT=2:4
INCH,LZ
;TYPE=PLATED
T01F00S00C0.0080
T04F00S00C0.0400
;TYPE=NON_PLATED
T05F00S00C0.1250
%
T01
X014587Y014075
X018504Y011811
X019291Y010768
X016929Y014567
X015755Y014699
X015499
X015243
Y016949
X015499Y018219
X015657Y01931
X019291Y019291
X017717Y015551
X013504Y016929
X012106Y019646
Y019921
X0104
Y019646
X009449Y018288
Y016732
X011358Y022299
X012126Y022165
T04
X027755Y001288
X028755
Y002288
Y003288
Y004288
Y005288
Y006288
Y007288
Y008288
Y009288
Y010288
Y011288
Y012288
Y013288
X027755
Y012288
Y011288
Y010288
Y009288
Y008288
Y007288
Y006288
Y005288
Y004288
Y003288
Y002288
X003755
Y003288
Y004288
Y005288
Y006288
Y007288
Y008288
Y009288
Y010288
Y011288
Y012288
Y013288
X002755
Y012288
Y011288
Y010288
Y009288
Y008288
Y007288
Y006288
Y005288
Y004288
Y003288
Y002288
Y001288
X003755
Y014288
Y015288
Y016288
Y017288
Y018288
Y019288
Y020288
X002755
Y019288
Y018288
Y017288
Y016288
Y015288
Y014288
X027755
X028755
Y015288
Y016288
Y017288
Y018288
Y019288
Y020288
X027755
Y019288
Y018288
Y017288
Y016288
Y015288
T05
X001385Y023221
X030125
M30
