G04*
G04 #@! TF.GenerationSoftware,Altium Limited,Altium Designer,25.8.1 (18)*
G04*
G04 Layer_Physical_Order=1*
G04 Layer_Color=255*
%FSLAX24Y24*%
%MOIN*%
G70*
G04*
G04 #@! TF.SameCoordinates,09999318-E88C-4F9F-A6D3-71EC491E3F06*
G04*
G04*
G04 #@! TF.FilePolarity,Positive*
G04*
G01*
G75*
%ADD13C,0.0059*%
%ADD16C,0.0100*%
%ADD17C,0.0050*%
%ADD37C,0.0150*%
%ADD38C,0.0080*%
%ADD39C,0.0120*%
%ADD40R,0.0394X0.0354*%
%ADD41R,0.0354X0.0394*%
%ADD42R,0.0256X0.0177*%
%ADD43R,0.0157X0.0531*%
%ADD44R,0.0709X0.0748*%
G04:AMPARAMS|DCode=45|XSize=51.2mil|YSize=35.4mil|CornerRadius=3.5mil|HoleSize=0mil|Usage=FLASHONLY|Rotation=270.000|XOffset=0mil|YOffset=0mil|HoleType=Round|Shape=RoundedRectangle|*
%AMROUNDEDRECTD45*
21,1,0.0512,0.0283,0,0,270.0*
21,1,0.0441,0.0354,0,0,270.0*
1,1,0.0071,-0.0142,-0.0220*
1,1,0.0071,-0.0142,0.0220*
1,1,0.0071,0.0142,0.0220*
1,1,0.0071,0.0142,-0.0220*
%
%ADD45ROUNDEDRECTD45*%
%ADD46O,0.0177X0.0551*%
%ADD47R,0.0079X0.0266*%
%ADD48C,0.0090*%
%ADD49C,0.0400*%
%ADD50C,0.0200*%
%ADD51R,0.0236X0.0079*%
%ADD52C,0.0700*%
%ADD53R,0.0700X0.0700*%
G04:AMPARAMS|DCode=54|XSize=39.4mil|YSize=74.8mil|CornerRadius=19.7mil|HoleSize=0mil|Usage=FLASHONLY|Rotation=180.000|XOffset=0mil|YOffset=0mil|HoleType=Round|Shape=RoundedRectangle|*
%AMROUNDEDRECTD54*
21,1,0.0394,0.0354,0,0,180.0*
21,1,0.0000,0.0748,0,0,180.0*
1,1,0.0394,0.0000,0.0177*
1,1,0.0394,0.0000,0.0177*
1,1,0.0394,0.0000,-0.0177*
1,1,0.0394,0.0000,-0.0177*
%
%ADD54ROUNDEDRECTD54*%
G04:AMPARAMS|DCode=55|XSize=41.3mil|YSize=49.2mil|CornerRadius=20.7mil|HoleSize=0mil|Usage=FLASHONLY|Rotation=180.000|XOffset=0mil|YOffset=0mil|HoleType=Round|Shape=RoundedRectangle|*
%AMROUNDEDRECTD55*
21,1,0.0413,0.0079,0,0,180.0*
21,1,0.0000,0.0492,0,0,180.0*
1,1,0.0413,0.0000,0.0039*
1,1,0.0413,0.0000,0.0039*
1,1,0.0413,0.0000,-0.0039*
1,1,0.0413,0.0000,-0.0039*
%
%ADD55ROUNDEDRECTD55*%
%ADD56C,0.1181*%
%ADD57C,0.0140*%
G36*
X3737Y24399D02*
X9718D01*
X9743Y24349D01*
X9730Y24332D01*
X9702Y24265D01*
X9693Y24193D01*
Y23839D01*
X9702Y23767D01*
X9730Y23700D01*
X9744Y23681D01*
X9936Y23873D01*
X9970Y23839D01*
Y24390D01*
X10219D01*
X10223Y24399D01*
X10757D01*
Y24041D01*
X11161D01*
X11566D01*
Y24399D01*
X11663D01*
Y24041D01*
X12067D01*
X12471D01*
Y24399D01*
X13005D01*
X13010Y24390D01*
X13258D01*
Y23839D01*
X13258Y23839D01*
X13293Y23873D01*
X13485Y23681D01*
X13499Y23700D01*
X13526Y23767D01*
X13536Y23839D01*
Y24193D01*
X13526Y24265D01*
X13499Y24332D01*
X13486Y24349D01*
X13511Y24399D01*
X27733Y24399D01*
X27733Y24399D01*
X27733Y24399D01*
X27830Y24399D01*
X28021Y24362D01*
X28201Y24289D01*
X28363Y24182D01*
X28502Y24046D01*
X28610Y23885D01*
X28641Y23813D01*
X28601Y23717D01*
X28542Y23472D01*
X28523Y23221D01*
X28542Y22971D01*
X28601Y22726D01*
X28697Y22494D01*
X28829Y22279D01*
X28992Y22088D01*
X29183Y21925D01*
X29398Y21793D01*
X29630Y21697D01*
X29874Y21639D01*
X30125Y21619D01*
X30376Y21639D01*
X30620Y21697D01*
X30731Y21743D01*
X30765Y21729D01*
X30926Y21620D01*
X31062Y21482D01*
X31168Y21321D01*
X31241Y21141D01*
X31278Y20951D01*
X31277Y20854D01*
X31277Y1183D01*
X31277Y1183D01*
Y1086D01*
X31240Y897D01*
X31166Y718D01*
X31058Y557D01*
X30922Y420D01*
X30761Y313D01*
X30582Y239D01*
X30393Y201D01*
X1164D01*
X1071Y214D01*
X893Y270D01*
X726Y353D01*
X575Y462D01*
X443Y594D01*
X334Y745D01*
X250Y912D01*
X195Y1090D01*
X182Y1183D01*
X182Y20662D01*
X182Y20662D01*
X182Y20662D01*
X176Y20734D01*
X183Y20877D01*
X209Y21018D01*
X252Y21155D01*
X313Y21285D01*
X391Y21405D01*
X484Y21515D01*
X590Y21611D01*
X708Y21693D01*
X794Y21737D01*
X890Y21697D01*
X1134Y21639D01*
X1385Y21619D01*
X1636Y21639D01*
X1880Y21697D01*
X2113Y21793D01*
X2327Y21925D01*
X2518Y22088D01*
X2681Y22279D01*
X2813Y22494D01*
X2909Y22726D01*
X2968Y22971D01*
X2988Y23221D01*
X2968Y23472D01*
X2909Y23717D01*
X2842Y23880D01*
X2872Y23944D01*
X2984Y24094D01*
X3123Y24219D01*
X3283Y24314D01*
X3459Y24377D01*
X3644Y24403D01*
X3737Y24399D01*
D02*
G37*
%LPC*%
G36*
X12471Y23991D02*
X12092D01*
Y23592D01*
X12471D01*
Y23991D01*
D02*
G37*
G36*
X12042D02*
X11663D01*
Y23592D01*
X12042D01*
Y23991D01*
D02*
G37*
G36*
X11566D02*
X11186D01*
Y23592D01*
X11566D01*
Y23991D01*
D02*
G37*
G36*
X11136D02*
X10757D01*
Y23592D01*
X11136D01*
Y23991D01*
D02*
G37*
G36*
X13258Y23769D02*
X13258Y23769D01*
Y23642D01*
X13131D01*
X13101Y23612D01*
X13119Y23598D01*
X13186Y23570D01*
X13258Y23561D01*
X13330Y23570D01*
X13397Y23598D01*
X13415Y23612D01*
X13258Y23769D01*
D02*
G37*
G36*
X9970D02*
X9813Y23612D01*
X9831Y23598D01*
X9899Y23570D01*
X9970Y23561D01*
X10042Y23570D01*
X10109Y23598D01*
X10128Y23612D01*
X10098Y23642D01*
X9970D01*
Y23769D01*
D01*
D02*
G37*
G36*
X12405Y23428D02*
X11080D01*
Y23278D01*
X10974D01*
Y23115D01*
X10924Y23092D01*
X10882Y23123D01*
X10813Y23152D01*
X10738Y23162D01*
X10664Y23152D01*
X10594Y23123D01*
X10574Y23108D01*
X10773Y22909D01*
X10703Y22839D01*
X10504Y23038D01*
X10489Y23018D01*
X10460Y22949D01*
X10450Y22874D01*
Y22795D01*
X10460Y22721D01*
X10489Y22651D01*
X10504Y22631D01*
X10703Y22830D01*
X10738Y22795D01*
X10773Y22830D01*
X10972Y22631D01*
X10984Y22647D01*
X11080D01*
Y22497D01*
X11124D01*
Y22438D01*
X11122Y22436D01*
X11095Y22370D01*
X11086Y22299D01*
X11095Y22229D01*
X11122Y22163D01*
X11166Y22107D01*
X11222Y22064D01*
X11288Y22036D01*
X11358Y22027D01*
X11380Y22030D01*
X11417Y21997D01*
Y21765D01*
X11414D01*
Y21567D01*
X11404Y21514D01*
Y21361D01*
X11414Y21309D01*
Y21211D01*
X11404Y21159D01*
Y21005D01*
X11414Y20953D01*
Y20755D01*
X11417D01*
Y19899D01*
X11437Y19803D01*
X11491Y19722D01*
X11671Y19542D01*
X11752Y19488D01*
X11847Y19469D01*
X11902D01*
X11914Y19453D01*
X11970Y19410D01*
X12036Y19383D01*
X12106Y19373D01*
X12177Y19383D01*
X12242Y19410D01*
X12299Y19453D01*
X12342Y19510D01*
X12369Y19575D01*
X12379Y19646D01*
X12369Y19716D01*
X12342Y19782D01*
X12341Y19783D01*
X12342Y19785D01*
X12369Y19851D01*
X12379Y19921D01*
X12369Y19992D01*
X12342Y20057D01*
X12299Y20114D01*
X12242Y20157D01*
X12177Y20184D01*
X12106Y20194D01*
X12085Y20191D01*
X12047Y20224D01*
Y20755D01*
X12208D01*
Y21420D01*
X12061D01*
Y21514D01*
X12050Y21567D01*
Y21765D01*
X12047D01*
Y21848D01*
X12097Y21892D01*
X12126Y21888D01*
X12198Y21897D01*
X12265Y21925D01*
X12322Y21969D01*
X12366Y22027D01*
X12394Y22094D01*
X12403Y22165D01*
Y22471D01*
X12441Y22508D01*
X12455Y22512D01*
X12490Y22507D01*
X12565Y22517D01*
X12634Y22546D01*
X12654Y22561D01*
X12455Y22760D01*
X12525Y22830D01*
X12724Y22631D01*
X12739Y22651D01*
X12768Y22721D01*
X12778Y22795D01*
Y22874D01*
X12768Y22949D01*
X12739Y23018D01*
X12724Y23038D01*
X12525Y22839D01*
X12455Y22909D01*
X12654Y23108D01*
X12634Y23123D01*
X12565Y23152D01*
X12490Y23162D01*
X12455Y23157D01*
X12405Y23199D01*
Y23428D01*
D02*
G37*
G36*
X10738Y22726D02*
X10574Y22561D01*
X10594Y22546D01*
X10664Y22517D01*
X10738Y22507D01*
X10813Y22517D01*
X10882Y22546D01*
X10902Y22561D01*
X10738Y22726D01*
D02*
G37*
G36*
X28755Y20843D02*
X28611Y20824D01*
X28478Y20769D01*
X28363Y20681D01*
X28352Y20667D01*
X28305Y20683D01*
Y20838D01*
X27205D01*
Y19738D01*
X27360D01*
X27376Y19691D01*
X27363Y19681D01*
X27275Y19566D01*
X27219Y19432D01*
X27200Y19288D01*
X27219Y19145D01*
X27275Y19011D01*
X27363Y18896D01*
X27465Y18818D01*
X27469Y18801D01*
Y18776D01*
X27465Y18759D01*
X27363Y18681D01*
X27275Y18566D01*
X27261Y18533D01*
X25017D01*
X24999Y18619D01*
X24961Y18677D01*
Y18701D01*
X24942D01*
X24869Y18749D01*
X24778Y18768D01*
X24494D01*
X24409Y18751D01*
X24325Y18768D01*
X24041D01*
X23949Y18749D01*
X23877Y18701D01*
X23858D01*
Y18677D01*
X23820Y18619D01*
X23806Y18552D01*
X19688D01*
Y18645D01*
X18894D01*
Y18512D01*
X18717D01*
X18709Y18511D01*
X18522Y18496D01*
X18332Y18451D01*
X18152Y18376D01*
X17985Y18274D01*
X17837Y18147D01*
X17710Y17999D01*
X17608Y17832D01*
X17534Y17652D01*
X17488Y17462D01*
X17473Y17275D01*
X17472Y17268D01*
Y15666D01*
X17453Y15622D01*
X17444Y15551D01*
X17453Y15481D01*
X17481Y15415D01*
X17524Y15359D01*
X17580Y15315D01*
X17646Y15288D01*
X17717Y15279D01*
X17787Y15288D01*
X17853Y15315D01*
X17909Y15359D01*
X17952Y15415D01*
X17980Y15481D01*
X17989Y15551D01*
X17980Y15622D01*
X17961Y15666D01*
Y17268D01*
X17959Y17279D01*
X17972Y17416D01*
X18016Y17558D01*
X18086Y17689D01*
X18180Y17804D01*
X18295Y17899D01*
X18426Y17969D01*
X18569Y18012D01*
X18705Y18025D01*
X18717Y18023D01*
X18894D01*
Y17891D01*
X19688D01*
Y18062D01*
X23806D01*
X23820Y17995D01*
X23858Y17937D01*
Y17913D01*
X23877D01*
X23949Y17865D01*
X24041Y17847D01*
X24325D01*
X24409Y17863D01*
X24494Y17847D01*
X24778D01*
X24869Y17865D01*
X24942Y17913D01*
X24961D01*
Y17937D01*
X24999Y17995D01*
X25009Y18044D01*
X27261D01*
X27275Y18011D01*
X27363Y17896D01*
X27465Y17818D01*
X27469Y17801D01*
Y17776D01*
X27465Y17759D01*
X27363Y17681D01*
X27275Y17566D01*
X27219Y17432D01*
X27200Y17288D01*
X27219Y17145D01*
X27275Y17011D01*
X27363Y16896D01*
X27465Y16818D01*
X27469Y16801D01*
Y16776D01*
X27465Y16759D01*
X27363Y16681D01*
X27275Y16566D01*
X27219Y16432D01*
X27200Y16288D01*
X27219Y16145D01*
X27275Y16011D01*
X27363Y15896D01*
X27465Y15818D01*
X27469Y15801D01*
Y15776D01*
X27465Y15759D01*
X27363Y15681D01*
X27275Y15566D01*
X27219Y15432D01*
X27200Y15288D01*
X27219Y15145D01*
X27255Y15058D01*
X27221Y15008D01*
X25018D01*
Y15014D01*
X24999Y15106D01*
X24961Y15164D01*
Y15187D01*
X24942D01*
X24869Y15236D01*
X24778Y15254D01*
X24494D01*
X24409Y15237D01*
X24325Y15254D01*
X24041D01*
X23949Y15236D01*
X23877Y15187D01*
X23858D01*
Y15164D01*
X23820Y15106D01*
X23806Y15038D01*
X17156D01*
X17145Y15036D01*
X17034Y15021D01*
X16920Y14974D01*
X16823Y14900D01*
X16748Y14802D01*
X16723Y14742D01*
X16693Y14703D01*
X16666Y14637D01*
X16657Y14567D01*
X16666Y14496D01*
X16693Y14431D01*
X16737Y14374D01*
X16793Y14331D01*
X16859Y14304D01*
X16929Y14295D01*
X17000Y14304D01*
X17065Y14331D01*
X17122Y14374D01*
X17165Y14431D01*
X17192Y14496D01*
X17199Y14549D01*
X23806D01*
X23820Y14481D01*
X23858Y14423D01*
Y14400D01*
X23877D01*
X23949Y14351D01*
X24041Y14333D01*
X24325D01*
X24409Y14350D01*
X24494Y14333D01*
X24778D01*
X24869Y14351D01*
X24942Y14400D01*
X24961D01*
Y14423D01*
X24999Y14481D01*
X25007Y14519D01*
X27210D01*
X27238Y14477D01*
X27219Y14432D01*
X27200Y14288D01*
X27219Y14145D01*
X27252Y14066D01*
X27224Y14024D01*
X25013D01*
X24999Y14092D01*
X24961Y14150D01*
Y14173D01*
X24942D01*
X24869Y14222D01*
X24778Y14240D01*
X24494D01*
X24409Y14223D01*
X24325Y14240D01*
X24041D01*
X23949Y14222D01*
X23877Y14173D01*
X23858D01*
Y14150D01*
X23820Y14092D01*
X23806Y14024D01*
X15987D01*
X15976Y14022D01*
X15839Y14035D01*
X15838Y14036D01*
X15697Y14079D01*
X15566Y14149D01*
X15451Y14243D01*
X15357Y14358D01*
X15345Y14379D01*
X15365Y14436D01*
X15395Y14450D01*
X15429Y14436D01*
X15499Y14426D01*
X15570Y14436D01*
X15627Y14460D01*
X15685Y14436D01*
X15755Y14426D01*
X15826Y14436D01*
X15891Y14463D01*
X15948Y14506D01*
X15991Y14563D01*
X16018Y14628D01*
X16027Y14699D01*
X16018Y14769D01*
X16058Y14804D01*
X16086Y14807D01*
X16156Y14837D01*
X16217Y14883D01*
X16263Y14943D01*
X16292Y15013D01*
X16302Y15089D01*
Y15463D01*
X16292Y15538D01*
X16263Y15608D01*
X16217Y15668D01*
X16156Y15715D01*
X16086Y15744D01*
X16011Y15754D01*
X15936Y15744D01*
X15883Y15722D01*
X15830Y15744D01*
X15755Y15754D01*
X15680Y15744D01*
X15627Y15722D01*
X15574Y15744D01*
X15499Y15754D01*
X15424Y15744D01*
X15371Y15722D01*
X15319Y15744D01*
X15243Y15754D01*
X15168Y15744D01*
X15115Y15722D01*
X15063Y15744D01*
X14987Y15754D01*
X14912Y15744D01*
X14859Y15722D01*
X14807Y15744D01*
X14731Y15754D01*
X14656Y15744D01*
X14603Y15722D01*
X14551Y15744D01*
X14476Y15754D01*
X14400Y15744D01*
X14330Y15715D01*
X14270Y15668D01*
X14223Y15608D01*
X14201Y15553D01*
X13881D01*
Y15653D01*
X13781D01*
Y16929D01*
X13772Y17001D01*
X13744Y17068D01*
X13700Y17125D01*
X13643Y17169D01*
X13576Y17197D01*
X13504Y17207D01*
X13432Y17197D01*
X13365Y17169D01*
X13308Y17125D01*
X13264Y17068D01*
X13236Y17001D01*
X13227Y16929D01*
Y15653D01*
X13127D01*
Y15556D01*
X13111Y15513D01*
X13077Y15513D01*
X12914D01*
Y15256D01*
Y14999D01*
X13111Y14999D01*
X13127Y14956D01*
Y14859D01*
X13881D01*
Y14998D01*
X14201D01*
X14223Y14943D01*
X14245Y14915D01*
X14220Y14865D01*
X14209D01*
Y14769D01*
X14194Y14725D01*
X14159Y14725D01*
X13997D01*
Y14468D01*
Y14212D01*
X14194Y14212D01*
X14209Y14168D01*
Y14072D01*
X14315D01*
X14324Y14004D01*
X14351Y13939D01*
X14394Y13882D01*
X14450Y13839D01*
X14516Y13812D01*
X14587Y13802D01*
X14657Y13812D01*
X14723Y13839D01*
X14779Y13882D01*
X14822Y13939D01*
X14850Y14004D01*
X14859Y14072D01*
X14964D01*
X14978Y14054D01*
X14981Y14048D01*
X15108Y13900D01*
X15256Y13773D01*
X15423Y13671D01*
X15603Y13597D01*
X15694Y13575D01*
X15696Y13573D01*
X15721Y13568D01*
X15793Y13551D01*
X15980Y13536D01*
X15987Y13535D01*
X23806D01*
X23820Y13467D01*
X23858Y13409D01*
Y13386D01*
X23877D01*
X23949Y13337D01*
X24041Y13319D01*
X24325D01*
X24409Y13336D01*
X24494Y13319D01*
X24778D01*
X24869Y13337D01*
X24942Y13386D01*
X24961D01*
Y13409D01*
X24999Y13467D01*
X25013Y13535D01*
X27217D01*
X27245Y13493D01*
X27219Y13432D01*
X27200Y13288D01*
X27219Y13145D01*
X27275Y13011D01*
X27363Y12896D01*
X27465Y12818D01*
X27469Y12801D01*
Y12776D01*
X27465Y12759D01*
X27363Y12681D01*
X27275Y12566D01*
X27219Y12432D01*
X27200Y12288D01*
X27219Y12145D01*
X27239Y12097D01*
X27211Y12056D01*
X25013D01*
X24999Y12123D01*
X24961Y12181D01*
Y12205D01*
X24942D01*
X24869Y12253D01*
X24778Y12272D01*
X24494D01*
X24409Y12255D01*
X24325Y12272D01*
X24041D01*
X23949Y12253D01*
X23877Y12205D01*
X23858D01*
Y12181D01*
X23820Y12123D01*
X23806Y12056D01*
X19688D01*
Y12188D01*
X18894D01*
Y12056D01*
X18619D01*
X18574Y12074D01*
X18504Y12083D01*
X18433Y12074D01*
X18368Y12047D01*
X18311Y12004D01*
X18268Y11947D01*
X18241Y11882D01*
X18232Y11811D01*
X18241Y11741D01*
X18268Y11675D01*
X18311Y11618D01*
X18368Y11575D01*
X18433Y11548D01*
X18504Y11539D01*
X18574Y11548D01*
X18619Y11566D01*
X18894D01*
Y11434D01*
X19688D01*
Y11566D01*
X23806D01*
X23820Y11499D01*
X23858Y11441D01*
Y11417D01*
X23877D01*
X23949Y11369D01*
X24041Y11351D01*
X24325D01*
X24409Y11367D01*
X24494Y11351D01*
X24778D01*
X24869Y11369D01*
X24942Y11417D01*
X24961D01*
Y11441D01*
X24999Y11499D01*
X25013Y11566D01*
X27221D01*
X27254Y11516D01*
X27219Y11432D01*
X27200Y11288D01*
X27219Y11145D01*
X27275Y11011D01*
X27363Y10896D01*
X27465Y10818D01*
X27469Y10801D01*
Y10776D01*
X27465Y10759D01*
X27363Y10681D01*
X27275Y10566D01*
X27219Y10432D01*
X27200Y10288D01*
X27219Y10145D01*
X27263Y10039D01*
X27231Y9989D01*
X25013D01*
X24999Y10056D01*
X24961Y10114D01*
Y10138D01*
X24942D01*
X24869Y10186D01*
X24778Y10205D01*
X24494D01*
X24409Y10188D01*
X24325Y10205D01*
X24041D01*
X23949Y10186D01*
X23877Y10138D01*
X23858D01*
Y10114D01*
X23820Y10056D01*
X23801Y9965D01*
Y9524D01*
X23820Y9432D01*
X23858Y9374D01*
Y9350D01*
X23877D01*
X23949Y9302D01*
X24041Y9284D01*
X24325D01*
X24409Y9300D01*
X24494Y9284D01*
X24778D01*
X24869Y9302D01*
X24942Y9350D01*
X24961D01*
Y9374D01*
X24999Y9432D01*
X25013Y9499D01*
X27202D01*
X27230Y9458D01*
X27219Y9432D01*
X27200Y9288D01*
X27219Y9145D01*
X27275Y9011D01*
X27363Y8896D01*
X27465Y8818D01*
X27469Y8801D01*
Y8776D01*
X27465Y8759D01*
X27363Y8681D01*
X27275Y8566D01*
X27219Y8432D01*
X27200Y8288D01*
X27219Y8145D01*
X27275Y8011D01*
X27363Y7896D01*
X27465Y7818D01*
X27469Y7801D01*
Y7776D01*
X27465Y7759D01*
X27363Y7681D01*
X27275Y7566D01*
X27219Y7432D01*
X27200Y7288D01*
X27219Y7145D01*
X27275Y7011D01*
X27363Y6896D01*
X27465Y6818D01*
X27469Y6801D01*
Y6776D01*
X27465Y6759D01*
X27363Y6681D01*
X27275Y6566D01*
X27219Y6432D01*
X27200Y6288D01*
X27219Y6145D01*
X27275Y6011D01*
X27363Y5896D01*
X27465Y5818D01*
X27469Y5801D01*
Y5776D01*
X27465Y5759D01*
X27363Y5681D01*
X27275Y5566D01*
X27219Y5432D01*
X27200Y5288D01*
X27219Y5145D01*
X27275Y5011D01*
X27363Y4896D01*
X27465Y4818D01*
X27469Y4801D01*
Y4776D01*
X27465Y4759D01*
X27363Y4681D01*
X27275Y4566D01*
X27219Y4432D01*
X27200Y4288D01*
X27219Y4145D01*
X27275Y4011D01*
X27363Y3896D01*
X27465Y3818D01*
X27469Y3801D01*
Y3776D01*
X27465Y3759D01*
X27363Y3681D01*
X27275Y3566D01*
X27219Y3432D01*
X27200Y3288D01*
X27219Y3145D01*
X27275Y3011D01*
X27363Y2896D01*
X27465Y2818D01*
X27469Y2801D01*
Y2776D01*
X27465Y2759D01*
X27363Y2681D01*
X27275Y2566D01*
X27219Y2432D01*
X27200Y2288D01*
X27219Y2145D01*
X27275Y2011D01*
X27363Y1896D01*
X27465Y1818D01*
X27469Y1801D01*
Y1776D01*
X27465Y1759D01*
X27363Y1681D01*
X27275Y1566D01*
X27219Y1432D01*
X27200Y1288D01*
X27219Y1145D01*
X27275Y1011D01*
X27363Y896D01*
X27478Y808D01*
X27611Y752D01*
X27755Y734D01*
X27899Y752D01*
X28032Y808D01*
X28147Y896D01*
X28226Y998D01*
X28242Y1003D01*
X28268D01*
X28284Y998D01*
X28363Y896D01*
X28478Y808D01*
X28611Y752D01*
X28755Y734D01*
X28899Y752D01*
X29032Y808D01*
X29147Y896D01*
X29235Y1011D01*
X29291Y1145D01*
X29310Y1288D01*
X29291Y1432D01*
X29235Y1566D01*
X29147Y1681D01*
X29045Y1759D01*
X29041Y1776D01*
Y1801D01*
X29045Y1818D01*
X29147Y1896D01*
X29235Y2011D01*
X29291Y2145D01*
X29310Y2288D01*
X29291Y2432D01*
X29235Y2566D01*
X29147Y2681D01*
X29045Y2759D01*
X29041Y2776D01*
Y2801D01*
X29045Y2818D01*
X29147Y2896D01*
X29235Y3011D01*
X29291Y3145D01*
X29310Y3288D01*
X29291Y3432D01*
X29235Y3566D01*
X29147Y3681D01*
X29045Y3759D01*
X29041Y3776D01*
Y3801D01*
X29045Y3818D01*
X29147Y3896D01*
X29235Y4011D01*
X29291Y4145D01*
X29310Y4288D01*
X29291Y4432D01*
X29235Y4566D01*
X29147Y4681D01*
X29045Y4759D01*
X29041Y4776D01*
Y4801D01*
X29045Y4818D01*
X29147Y4896D01*
X29235Y5011D01*
X29291Y5145D01*
X29310Y5288D01*
X29291Y5432D01*
X29235Y5566D01*
X29147Y5681D01*
X29045Y5759D01*
X29041Y5776D01*
Y5801D01*
X29045Y5818D01*
X29147Y5896D01*
X29235Y6011D01*
X29291Y6145D01*
X29310Y6288D01*
X29291Y6432D01*
X29235Y6566D01*
X29147Y6681D01*
X29045Y6759D01*
X29041Y6776D01*
Y6801D01*
X29045Y6818D01*
X29147Y6896D01*
X29235Y7011D01*
X29291Y7145D01*
X29310Y7288D01*
X29291Y7432D01*
X29235Y7566D01*
X29147Y7681D01*
X29045Y7759D01*
X29041Y7776D01*
Y7801D01*
X29045Y7818D01*
X29147Y7896D01*
X29235Y8011D01*
X29291Y8145D01*
X29310Y8288D01*
X29291Y8432D01*
X29235Y8566D01*
X29147Y8681D01*
X29045Y8759D01*
X29041Y8776D01*
Y8801D01*
X29045Y8818D01*
X29147Y8896D01*
X29235Y9011D01*
X29291Y9145D01*
X29310Y9288D01*
X29291Y9432D01*
X29235Y9566D01*
X29147Y9681D01*
X29045Y9759D01*
X29041Y9776D01*
Y9801D01*
X29045Y9818D01*
X29147Y9896D01*
X29235Y10011D01*
X29291Y10145D01*
X29310Y10288D01*
X29291Y10432D01*
X29235Y10566D01*
X29147Y10681D01*
X29045Y10759D01*
X29041Y10776D01*
Y10801D01*
X29045Y10818D01*
X29147Y10896D01*
X29235Y11011D01*
X29291Y11145D01*
X29310Y11288D01*
X29291Y11432D01*
X29235Y11566D01*
X29147Y11681D01*
X29045Y11759D01*
X29041Y11776D01*
Y11801D01*
X29045Y11818D01*
X29147Y11896D01*
X29235Y12011D01*
X29291Y12145D01*
X29310Y12288D01*
X29291Y12432D01*
X29235Y12566D01*
X29147Y12681D01*
X29045Y12759D01*
X29041Y12776D01*
Y12801D01*
X29045Y12818D01*
X29147Y12896D01*
X29235Y13011D01*
X29291Y13145D01*
X29310Y13288D01*
X29291Y13432D01*
X29235Y13566D01*
X29147Y13681D01*
X29045Y13759D01*
X29041Y13776D01*
Y13801D01*
X29045Y13818D01*
X29147Y13896D01*
X29235Y14011D01*
X29291Y14145D01*
X29310Y14288D01*
X29291Y14432D01*
X29235Y14566D01*
X29147Y14681D01*
X29032Y14769D01*
X28899Y14824D01*
X28889Y14825D01*
X28882Y14877D01*
X28971Y14914D01*
X29021Y14952D01*
X28720Y15253D01*
X28755Y15288D01*
X28720Y15323D01*
X29021Y15624D01*
X28971Y15663D01*
X28882Y15700D01*
X28889Y15751D01*
X28899Y15752D01*
X29032Y15808D01*
X29147Y15896D01*
X29235Y16011D01*
X29291Y16145D01*
X29310Y16288D01*
X29291Y16432D01*
X29235Y16566D01*
X29147Y16681D01*
X29045Y16759D01*
X29041Y16776D01*
Y16801D01*
X29045Y16818D01*
X29147Y16896D01*
X29235Y17011D01*
X29291Y17145D01*
X29310Y17288D01*
X29291Y17432D01*
X29235Y17566D01*
X29147Y17681D01*
X29045Y17759D01*
X29041Y17776D01*
Y17801D01*
X29045Y17818D01*
X29147Y17896D01*
X29235Y18011D01*
X29291Y18145D01*
X29310Y18288D01*
X29291Y18432D01*
X29235Y18566D01*
X29147Y18681D01*
X29045Y18759D01*
X29041Y18776D01*
Y18801D01*
X29045Y18818D01*
X29147Y18896D01*
X29235Y19011D01*
X29291Y19145D01*
X29310Y19288D01*
X29291Y19432D01*
X29235Y19566D01*
X29147Y19681D01*
X29045Y19759D01*
X29041Y19776D01*
Y19801D01*
X29045Y19818D01*
X29147Y19896D01*
X29235Y20011D01*
X29291Y20145D01*
X29310Y20288D01*
X29291Y20432D01*
X29235Y20566D01*
X29147Y20681D01*
X29032Y20769D01*
X28899Y20824D01*
X28755Y20843D01*
D02*
G37*
G36*
X3755D02*
X3611Y20824D01*
X3478Y20769D01*
X3363Y20681D01*
X3352Y20667D01*
X3305Y20683D01*
Y20838D01*
X2205D01*
Y19738D01*
X2360D01*
X2376Y19691D01*
X2363Y19681D01*
X2275Y19566D01*
X2219Y19432D01*
X2200Y19288D01*
X2219Y19145D01*
X2275Y19011D01*
X2363Y18896D01*
X2465Y18818D01*
X2469Y18801D01*
Y18776D01*
X2465Y18759D01*
X2363Y18681D01*
X2275Y18566D01*
X2219Y18432D01*
X2200Y18288D01*
X2219Y18145D01*
X2275Y18011D01*
X2363Y17896D01*
X2465Y17818D01*
X2469Y17801D01*
Y17776D01*
X2465Y17759D01*
X2363Y17681D01*
X2275Y17566D01*
X2219Y17432D01*
X2200Y17288D01*
X2219Y17145D01*
X2275Y17011D01*
X2363Y16896D01*
X2465Y16818D01*
X2469Y16801D01*
Y16776D01*
X2465Y16759D01*
X2363Y16681D01*
X2275Y16566D01*
X2219Y16432D01*
X2200Y16288D01*
X2219Y16145D01*
X2275Y16011D01*
X2363Y15896D01*
X2465Y15818D01*
X2469Y15801D01*
Y15776D01*
X2465Y15759D01*
X2363Y15681D01*
X2275Y15566D01*
X2219Y15432D01*
X2200Y15288D01*
X2219Y15145D01*
X2275Y15011D01*
X2363Y14896D01*
X2465Y14818D01*
X2469Y14801D01*
Y14776D01*
X2465Y14759D01*
X2363Y14681D01*
X2275Y14566D01*
X2219Y14432D01*
X2200Y14288D01*
X2219Y14145D01*
X2275Y14011D01*
X2363Y13896D01*
X2465Y13818D01*
X2469Y13801D01*
Y13776D01*
X2465Y13759D01*
X2363Y13681D01*
X2275Y13566D01*
X2219Y13432D01*
X2200Y13288D01*
X2219Y13145D01*
X2275Y13011D01*
X2363Y12896D01*
X2478Y12808D01*
X2611Y12752D01*
X2621Y12751D01*
X2628Y12700D01*
X2539Y12663D01*
X2489Y12624D01*
X2790Y12323D01*
X2755Y12288D01*
X2790Y12253D01*
X2489Y11952D01*
X2539Y11914D01*
X2628Y11877D01*
X2621Y11825D01*
X2611Y11824D01*
X2478Y11769D01*
X2363Y11681D01*
X2275Y11566D01*
X2219Y11432D01*
X2200Y11288D01*
X2219Y11145D01*
X2275Y11011D01*
X2363Y10896D01*
X2465Y10818D01*
X2469Y10801D01*
Y10776D01*
X2465Y10759D01*
X2363Y10681D01*
X2275Y10566D01*
X2219Y10432D01*
X2200Y10288D01*
X2219Y10145D01*
X2275Y10011D01*
X2363Y9896D01*
X2465Y9818D01*
X2469Y9801D01*
Y9776D01*
X2465Y9759D01*
X2363Y9681D01*
X2275Y9566D01*
X2219Y9432D01*
X2200Y9288D01*
X2219Y9145D01*
X2275Y9011D01*
X2363Y8896D01*
X2465Y8818D01*
X2469Y8801D01*
Y8776D01*
X2465Y8759D01*
X2363Y8681D01*
X2275Y8566D01*
X2219Y8432D01*
X2200Y8288D01*
X2219Y8145D01*
X2275Y8011D01*
X2363Y7896D01*
X2465Y7818D01*
X2469Y7801D01*
Y7776D01*
X2465Y7759D01*
X2363Y7681D01*
X2275Y7566D01*
X2219Y7432D01*
X2200Y7288D01*
X2219Y7145D01*
X2275Y7011D01*
X2363Y6896D01*
X2465Y6818D01*
X2469Y6801D01*
Y6776D01*
X2465Y6759D01*
X2363Y6681D01*
X2275Y6566D01*
X2219Y6432D01*
X2200Y6288D01*
X2219Y6145D01*
X2275Y6011D01*
X2363Y5896D01*
X2465Y5818D01*
X2469Y5801D01*
Y5776D01*
X2465Y5759D01*
X2363Y5681D01*
X2275Y5566D01*
X2219Y5432D01*
X2200Y5288D01*
X2219Y5145D01*
X2275Y5011D01*
X2363Y4896D01*
X2465Y4818D01*
X2469Y4801D01*
Y4776D01*
X2465Y4759D01*
X2363Y4681D01*
X2275Y4566D01*
X2219Y4432D01*
X2200Y4288D01*
X2219Y4145D01*
X2275Y4011D01*
X2363Y3896D01*
X2465Y3818D01*
X2469Y3801D01*
Y3776D01*
X2465Y3759D01*
X2363Y3681D01*
X2275Y3566D01*
X2219Y3432D01*
X2200Y3288D01*
X2219Y3145D01*
X2275Y3011D01*
X2363Y2896D01*
X2465Y2818D01*
X2469Y2801D01*
Y2776D01*
X2465Y2759D01*
X2363Y2681D01*
X2275Y2566D01*
X2219Y2432D01*
X2200Y2288D01*
X2219Y2145D01*
X2275Y2011D01*
X2363Y1896D01*
X2465Y1818D01*
X2469Y1801D01*
Y1776D01*
X2465Y1759D01*
X2363Y1681D01*
X2275Y1566D01*
X2219Y1432D01*
X2200Y1288D01*
X2219Y1145D01*
X2275Y1011D01*
X2363Y896D01*
X2478Y808D01*
X2611Y752D01*
X2755Y734D01*
X2899Y752D01*
X3032Y808D01*
X3147Y896D01*
X3226Y998D01*
X3242Y1003D01*
X3268D01*
X3284Y998D01*
X3363Y896D01*
X3478Y808D01*
X3611Y752D01*
X3755Y734D01*
X3899Y752D01*
X4032Y808D01*
X4147Y896D01*
X4235Y1011D01*
X4291Y1145D01*
X4310Y1288D01*
X4291Y1432D01*
X4235Y1566D01*
X4147Y1681D01*
X4045Y1759D01*
X4041Y1776D01*
Y1801D01*
X4045Y1818D01*
X4147Y1896D01*
X4235Y2011D01*
X4291Y2145D01*
X4310Y2288D01*
X4291Y2432D01*
X4235Y2566D01*
X4147Y2681D01*
X4045Y2759D01*
X4041Y2776D01*
Y2801D01*
X4045Y2818D01*
X4147Y2896D01*
X4235Y3011D01*
X4291Y3145D01*
X4310Y3288D01*
X4291Y3432D01*
X4235Y3566D01*
X4147Y3681D01*
X4045Y3759D01*
X4041Y3776D01*
Y3801D01*
X4045Y3818D01*
X4147Y3896D01*
X4235Y4011D01*
X4291Y4145D01*
X4310Y4288D01*
X4291Y4432D01*
X4235Y4566D01*
X4147Y4681D01*
X4045Y4759D01*
X4041Y4776D01*
Y4801D01*
X4045Y4818D01*
X4147Y4896D01*
X4235Y5011D01*
X4291Y5145D01*
X4310Y5288D01*
X4291Y5432D01*
X4235Y5566D01*
X4147Y5681D01*
X4045Y5759D01*
X4041Y5776D01*
Y5801D01*
X4045Y5818D01*
X4147Y5896D01*
X4235Y6011D01*
X4291Y6145D01*
X4310Y6288D01*
X4291Y6432D01*
X4235Y6566D01*
X4147Y6681D01*
X4045Y6759D01*
X4041Y6776D01*
Y6801D01*
X4045Y6818D01*
X4147Y6896D01*
X4235Y7011D01*
X4291Y7145D01*
X4310Y7288D01*
X4291Y7432D01*
X4235Y7566D01*
X4147Y7681D01*
X4045Y7759D01*
X4041Y7776D01*
Y7801D01*
X4045Y7818D01*
X4147Y7896D01*
X4235Y8011D01*
X4291Y8145D01*
X4310Y8288D01*
X4291Y8432D01*
X4235Y8566D01*
X4147Y8681D01*
X4045Y8759D01*
X4041Y8776D01*
Y8801D01*
X4045Y8818D01*
X4147Y8896D01*
X4235Y9011D01*
X4291Y9145D01*
X4310Y9288D01*
X4291Y9432D01*
X4235Y9566D01*
X4147Y9681D01*
X4045Y9759D01*
X4041Y9776D01*
Y9801D01*
X4045Y9818D01*
X4147Y9896D01*
X4235Y10011D01*
X4291Y10145D01*
X4310Y10288D01*
X4291Y10432D01*
X4235Y10566D01*
X4147Y10681D01*
X4045Y10759D01*
X4041Y10776D01*
Y10801D01*
X4045Y10818D01*
X4147Y10896D01*
X4235Y11011D01*
X4291Y11145D01*
X4310Y11288D01*
X4291Y11432D01*
X4235Y11566D01*
X4147Y11681D01*
X4045Y11759D01*
X4041Y11776D01*
Y11801D01*
X4045Y11818D01*
X4147Y11896D01*
X4235Y12011D01*
X4291Y12145D01*
X4310Y12288D01*
X4291Y12432D01*
X4235Y12566D01*
X4147Y12681D01*
X4045Y12759D01*
X4041Y12776D01*
Y12801D01*
X4045Y12818D01*
X4147Y12896D01*
X4235Y13011D01*
X4291Y13145D01*
X4310Y13288D01*
X4291Y13432D01*
X4235Y13566D01*
X4147Y13681D01*
X4045Y13759D01*
X4041Y13776D01*
Y13801D01*
X4045Y13818D01*
X4147Y13896D01*
X4235Y14011D01*
X4291Y14145D01*
X4310Y14288D01*
X4291Y14432D01*
X4235Y14566D01*
X4147Y14681D01*
X4045Y14759D01*
X4041Y14776D01*
Y14801D01*
X4045Y14818D01*
X4147Y14896D01*
X4235Y15011D01*
X4291Y15145D01*
X4310Y15288D01*
X4291Y15432D01*
X4235Y15566D01*
X4147Y15681D01*
X4045Y15759D01*
X4041Y15776D01*
Y15801D01*
X4045Y15818D01*
X4147Y15896D01*
X4235Y16011D01*
X4291Y16145D01*
X4310Y16288D01*
X4291Y16432D01*
X4235Y16566D01*
X4147Y16681D01*
X4045Y16759D01*
X4041Y16776D01*
Y16801D01*
X4045Y16818D01*
X4147Y16896D01*
X4235Y17011D01*
X4291Y17145D01*
X4310Y17288D01*
X4291Y17432D01*
X4274Y17472D01*
X4302Y17513D01*
X5965D01*
X5966Y17514D01*
X6030Y17501D01*
X6086Y17464D01*
X6123Y17408D01*
X6126Y17390D01*
X6133Y17343D01*
X6133D01*
X6152Y17192D01*
X6210Y17053D01*
X6303Y16932D01*
X6423Y16840D01*
X6562Y16782D01*
X6713Y16763D01*
Y16765D01*
X7176D01*
X7186Y16715D01*
X7224Y16657D01*
Y16634D01*
X7243D01*
X7316Y16585D01*
X7407Y16567D01*
X7691D01*
X7776Y16584D01*
X7860Y16567D01*
X8144D01*
X8236Y16585D01*
X8308Y16634D01*
X8327D01*
Y16657D01*
X8365Y16715D01*
X8381Y16794D01*
X9135D01*
X9179Y16754D01*
X9176Y16732D01*
X9186Y16662D01*
X9213Y16596D01*
X9256Y16540D01*
X9313Y16496D01*
X9378Y16469D01*
X9449Y16460D01*
X9519Y16469D01*
X9585Y16496D01*
X9641Y16540D01*
X9685Y16596D01*
X9712Y16662D01*
X9721Y16732D01*
X9712Y16803D01*
X9685Y16868D01*
X9642Y16924D01*
X9612Y16997D01*
X9528Y17107D01*
X9418Y17191D01*
X9291Y17244D01*
X9154Y17262D01*
Y17262D01*
X8381D01*
X8365Y17340D01*
X8327Y17398D01*
Y17421D01*
X8308D01*
X8236Y17470D01*
X8144Y17488D01*
X7860D01*
X7776Y17471D01*
X7691Y17488D01*
X7407D01*
X7316Y17470D01*
X7243Y17421D01*
X7224D01*
Y17398D01*
X7186Y17340D01*
X7176Y17290D01*
X6713D01*
X6710Y17289D01*
X6682Y17301D01*
X6661Y17343D01*
X6661D01*
X6648Y17478D01*
X6608Y17609D01*
X6544Y17729D01*
X6457Y17835D01*
X6351Y17922D01*
X6322Y17937D01*
X6334Y17986D01*
X6614D01*
X6614Y17986D01*
X7184D01*
X7186Y17976D01*
X7224Y17918D01*
Y17895D01*
X7243D01*
X7316Y17846D01*
X7407Y17828D01*
X7691D01*
X7776Y17845D01*
X7860Y17828D01*
X8144D01*
X8236Y17846D01*
X8308Y17895D01*
X8327D01*
Y17918D01*
X8365Y17976D01*
X8375Y18026D01*
X9376D01*
X9378Y18025D01*
X9449Y18016D01*
X9519Y18025D01*
X9585Y18052D01*
X9641Y18096D01*
X9685Y18152D01*
X9712Y18218D01*
X9721Y18288D01*
X9712Y18359D01*
X9685Y18424D01*
X9641Y18481D01*
X9585Y18524D01*
X9519Y18551D01*
X9449Y18561D01*
X9378Y18551D01*
X9376Y18551D01*
X8375D01*
X8365Y18601D01*
X8327Y18659D01*
Y18682D01*
X8308D01*
X8236Y18731D01*
X8144Y18749D01*
X7860D01*
X7776Y18732D01*
X7691Y18749D01*
X7407D01*
X7316Y18731D01*
X7243Y18682D01*
X7224D01*
Y18659D01*
X7186Y18601D01*
X7184Y18591D01*
X6614D01*
X6614Y18591D01*
X4216D01*
X4147Y18681D01*
X4045Y18759D01*
X4041Y18776D01*
Y18801D01*
X4045Y18818D01*
X4147Y18896D01*
X4235Y19011D01*
X4291Y19145D01*
X4310Y19288D01*
X4292Y19424D01*
X4300Y19442D01*
X4328Y19473D01*
X6901D01*
X6925Y19469D01*
X7408D01*
Y19337D01*
X8028D01*
X8064Y19337D01*
X8114Y19337D01*
X8733D01*
X8757Y19297D01*
Y19091D01*
X10141D01*
Y19469D01*
X10195D01*
X10207Y19453D01*
X10264Y19410D01*
X10330Y19383D01*
X10400Y19373D01*
X10470Y19383D01*
X10536Y19410D01*
X10593Y19453D01*
X10636Y19510D01*
X10663Y19575D01*
X10672Y19646D01*
X10663Y19716D01*
X10636Y19782D01*
X10635Y19783D01*
X10636Y19785D01*
X10663Y19851D01*
X10672Y19921D01*
X10663Y19992D01*
X10636Y20057D01*
X10593Y20114D01*
X10536Y20157D01*
X10470Y20184D01*
X10400Y20194D01*
X10330Y20184D01*
X10264Y20157D01*
X10207Y20114D01*
X10195Y20098D01*
X10141D01*
Y20476D01*
X8757D01*
Y20270D01*
X8733Y20230D01*
X8114D01*
X8078Y20230D01*
X8028Y20230D01*
X7408D01*
Y20098D01*
X6998D01*
X6974Y20103D01*
X4328D01*
X4300Y20134D01*
X4292Y20152D01*
X4310Y20288D01*
X4291Y20432D01*
X4235Y20566D01*
X4147Y20681D01*
X4032Y20769D01*
X3899Y20824D01*
X3755Y20843D01*
D02*
G37*
G36*
X15657Y19582D02*
X15586Y19573D01*
X15520Y19546D01*
X15464Y19502D01*
X15421Y19446D01*
X15394Y19380D01*
X15384Y19310D01*
X15394Y19239D01*
X15394Y19237D01*
Y19098D01*
X15279D01*
Y19001D01*
X15264Y18958D01*
X15067D01*
Y18701D01*
X14987D01*
Y18958D01*
X14790D01*
Y18802D01*
X13436D01*
Y18009D01*
X13588D01*
X13619Y17906D01*
X13705Y17746D01*
X13820Y17605D01*
X13961Y17490D01*
X14121Y17405D01*
X14188Y17384D01*
X14194Y17336D01*
X14223Y17266D01*
X14270Y17206D01*
X14330Y17159D01*
X14400Y17130D01*
X14476Y17120D01*
X14551Y17130D01*
X14603Y17152D01*
X14656Y17130D01*
X14731Y17120D01*
X14807Y17130D01*
X14877Y17159D01*
X14937Y17206D01*
X14956Y17230D01*
X14965Y17232D01*
X15009Y17213D01*
Y17087D01*
X15007Y17085D01*
X14980Y17019D01*
X14971Y16949D01*
X14980Y16878D01*
X15007Y16813D01*
X15051Y16756D01*
X15107Y16713D01*
X15173Y16686D01*
X15243Y16676D01*
X15314Y16686D01*
X15379Y16713D01*
X15436Y16756D01*
X15479Y16813D01*
X15506Y16878D01*
X15516Y16949D01*
X15506Y17019D01*
X15485Y17072D01*
X15490Y17091D01*
X15504Y17114D01*
X15510Y17122D01*
X15574Y17130D01*
X15627Y17152D01*
X15680Y17130D01*
X15755Y17120D01*
X15830Y17130D01*
X15883Y17152D01*
X15936Y17130D01*
X16011Y17120D01*
X16086Y17130D01*
X16156Y17159D01*
X16217Y17206D01*
X16263Y17266D01*
X16292Y17336D01*
X16302Y17411D01*
Y17785D01*
X16292Y17861D01*
X16263Y17931D01*
X16217Y17991D01*
X16156Y18038D01*
X16086Y18067D01*
X16017Y18076D01*
Y18304D01*
X16034D01*
Y19098D01*
X15919D01*
Y19237D01*
X15920Y19239D01*
X15929Y19310D01*
X15920Y19380D01*
X15892Y19446D01*
X15849Y19502D01*
X15793Y19546D01*
X15727Y19573D01*
X15657Y19582D01*
D02*
G37*
G36*
X12834Y15513D02*
X12637D01*
Y15296D01*
X12834D01*
Y15513D01*
D02*
G37*
G36*
X29091Y15555D02*
X28825Y15288D01*
X29091Y15022D01*
X29130Y15072D01*
X29173Y15176D01*
X29187Y15288D01*
X29173Y15400D01*
X29130Y15504D01*
X29091Y15555D01*
D02*
G37*
G36*
X12834Y15216D02*
X12637D01*
Y14999D01*
X12834D01*
Y15216D01*
D02*
G37*
G36*
X13917Y14725D02*
X13720D01*
Y14509D01*
X13917D01*
Y14725D01*
D02*
G37*
G36*
Y14428D02*
X13720D01*
Y14212D01*
X13917D01*
Y14428D01*
D02*
G37*
G36*
X2419Y12555D02*
X2381Y12505D01*
X2337Y12400D01*
X2323Y12288D01*
X2337Y12176D01*
X2381Y12072D01*
X2419Y12022D01*
X2685Y12288D01*
X2419Y12555D01*
D02*
G37*
G36*
X24000Y1744D02*
X22000D01*
X21907Y1725D01*
X21827Y1673D01*
X21775Y1593D01*
X21756Y1500D01*
Y500D01*
X21775Y407D01*
X21827Y327D01*
X21907Y275D01*
X22000Y256D01*
X24000D01*
X24093Y275D01*
X24173Y327D01*
X24225Y407D01*
X24244Y500D01*
Y1500D01*
X24225Y1593D01*
X24173Y1673D01*
X24093Y1725D01*
X24000Y1744D01*
D02*
G37*
%LPD*%
D13*
X9449Y16732D02*
G03*
X9154Y17028I-295J0D01*
G01*
X8002D02*
X9154D01*
X11358Y22299D02*
Y22963D01*
X15243Y14699D02*
Y15276D01*
X15755Y14699D02*
Y15276D01*
X15499Y14699D02*
Y15276D01*
Y17598D02*
Y18219D01*
X15243Y16949D02*
Y17598D01*
D16*
X2069Y-1084D02*
X2462D01*
X2265D01*
Y-1675D01*
X2757D02*
X2954D01*
X3052Y-1576D01*
Y-1379D01*
X2954Y-1281D01*
X2757D01*
X2659Y-1379D01*
Y-1576D01*
X2757Y-1675D01*
X3249Y-1871D02*
Y-1281D01*
X3544D01*
X3643Y-1379D01*
Y-1576D01*
X3544Y-1675D01*
X3249D01*
X4430Y-1084D02*
Y-1675D01*
X4824D01*
X5020D02*
X5217D01*
X5119D01*
Y-1084D01*
X5020Y-1183D01*
X22417Y750D02*
X22583D01*
X22500D01*
Y1250D01*
X22417Y1167D01*
X2069Y-730D02*
Y-139D01*
X2364D01*
X2462Y-238D01*
Y-435D01*
X2364Y-533D01*
X2069D01*
X3052Y-238D02*
X2954Y-139D01*
X2757D01*
X2659Y-238D01*
Y-631D01*
X2757Y-730D01*
X2954D01*
X3052Y-631D01*
X3249Y-139D02*
Y-730D01*
X3544D01*
X3643Y-631D01*
Y-533D01*
X3544Y-435D01*
X3249D01*
X3544D01*
X3643Y-336D01*
Y-238D01*
X3544Y-139D01*
X3249D01*
X4725D02*
X4528D01*
X4430Y-238D01*
Y-631D01*
X4528Y-730D01*
X4725D01*
X4824Y-631D01*
Y-238D01*
X4725Y-139D01*
X5020Y-336D02*
Y-631D01*
X5119Y-730D01*
X5414D01*
Y-336D01*
X5709Y-238D02*
Y-336D01*
X5611D01*
X5807D01*
X5709D01*
Y-631D01*
X5807Y-730D01*
X6103D02*
X6299D01*
X6201D01*
Y-139D01*
X6103D01*
X6595Y-730D02*
X6791D01*
X6693D01*
Y-336D01*
X6595D01*
X7087Y-730D02*
Y-336D01*
X7382D01*
X7480Y-435D01*
Y-730D01*
X7972D02*
X7775D01*
X7677Y-631D01*
Y-435D01*
X7775Y-336D01*
X7972D01*
X8070Y-435D01*
Y-533D01*
X7677D01*
D17*
X1072Y24606D02*
G03*
X0Y23534I0J-1072D01*
G01*
X31496Y23599D02*
G03*
X30489Y24606I-1007J0D01*
G01*
X30489Y0D02*
G03*
X31496Y1007I0J1007D01*
G01*
X0D02*
G03*
X1007Y0I1007J0D01*
G01*
X0Y1181D02*
Y23534D01*
X1072Y24606D02*
X30489D01*
X31496Y1007D02*
Y23599D01*
X1007Y0D02*
X30489D01*
X0Y1007D02*
Y1181D01*
D37*
X12125Y22902D02*
G03*
X12126Y22916I-199J14D01*
G01*
X12125Y22902D02*
G03*
X12124Y22874I365J-28D01*
G01*
Y22795D02*
G03*
X12125Y22768I366J0D01*
G01*
X12126Y22754D02*
G03*
X12125Y22768I-200J-1D01*
G01*
X12126Y22165D02*
Y22754D01*
X13504Y15256D02*
Y16929D01*
Y15256D02*
X13524Y15276D01*
X14476D01*
X12126Y22916D02*
Y22916D01*
Y22963D01*
X12124Y22795D02*
Y22874D01*
D38*
X17156Y14793D02*
G03*
X16929Y14567I0J-226D01*
G01*
X19331Y18307D02*
G03*
X19291Y18268I0J-39D01*
G01*
X18717D02*
G03*
X17717Y17268I0J-1000D01*
G01*
X15790Y13799D02*
G03*
X15987Y13780I197J980D01*
G01*
X14987Y14780D02*
G03*
X15790Y13799I1000J0D01*
G01*
X24636Y18307D02*
G03*
X24655Y18288I19J0D01*
G01*
X24636Y14961D02*
G03*
X24833Y14764I197J0D01*
G01*
X28211Y9744D02*
G03*
X28755Y10288I0J544D01*
G01*
X28278Y11811D02*
G03*
X28755Y12288I0J477D01*
G01*
Y13288D02*
G03*
X28264Y13780I-491J0D01*
G01*
X28755Y14288D02*
G03*
X28280Y14764I-476J0D01*
G01*
X17717Y15551D02*
Y17268D01*
X17156Y14793D02*
X24183D01*
X19331Y18307D02*
X24183D01*
X18717Y18268D02*
X19291D01*
X14987Y14780D02*
Y15276D01*
X15987Y13780D02*
X19291D01*
X18504Y11811D02*
Y11811D01*
Y11811D02*
X19291D01*
Y11811D01*
X24183D01*
X19291Y13780D02*
X24183D01*
X11968Y21432D02*
Y21633D01*
X12015Y21680D01*
X12160D01*
X7363Y17028D02*
X7549D01*
X24655Y18288D02*
X27755D01*
X24833Y14764D02*
X28280D01*
X24636Y13780D02*
X28264D01*
X24636Y13780D02*
Y13780D01*
Y11811D02*
X28278D01*
X24636Y9744D02*
X28211D01*
D39*
X10974Y22835D02*
G03*
X11102Y22963I0J128D01*
G01*
X6398Y17343D02*
G03*
X5965Y17776I-433J0D01*
G01*
X6398Y17343D02*
G03*
X6713Y17028I315J0D01*
G01*
X15755Y18602D02*
G03*
X15657Y18701I-98J0D01*
G01*
X15027D02*
G03*
X14987Y18661I0J-39D01*
G01*
X13813Y18261D02*
G03*
X14476Y17598I662J0D01*
G01*
X14731Y18117D02*
G03*
X14443Y18406I-288J0D01*
G01*
X14587Y14468D02*
G03*
X14731Y14613I0J145D01*
G01*
X2755Y18288D02*
G03*
X3268Y17776I513J0D01*
G01*
X19291Y10768D02*
Y11181D01*
Y18898D02*
Y19291D01*
X10738Y22835D02*
X10974D01*
X8002Y18288D02*
X9449D01*
X6713Y17028D02*
X7363D01*
X3268Y17776D02*
X5965D01*
X15657Y18701D02*
Y19310D01*
X15755Y17598D02*
Y18602D01*
X14987Y17598D02*
Y18661D01*
X13813Y18261D02*
Y18406D01*
X14731Y17598D02*
Y18117D01*
X14587Y14075D02*
Y14468D01*
X14731Y14613D02*
Y15276D01*
D40*
X19291Y11181D02*
D03*
Y11811D02*
D03*
Y18898D02*
D03*
Y18268D02*
D03*
D41*
X9764Y20079D02*
D03*
X9134D02*
D03*
X9764Y19488D02*
D03*
X9134D02*
D03*
X14443Y18406D02*
D03*
X13813D02*
D03*
X12874Y15256D02*
D03*
X13504D02*
D03*
X14587Y14468D02*
D03*
X13957D02*
D03*
X15027Y18701D02*
D03*
X15657D02*
D03*
D42*
X8406Y19626D02*
D03*
Y19941D02*
D03*
X7736Y19626D02*
D03*
Y19941D02*
D03*
D43*
X12126Y22963D02*
D03*
X11870D02*
D03*
X11614D02*
D03*
X11358D02*
D03*
X11102D02*
D03*
D44*
X12067Y24016D02*
D03*
X11161D02*
D03*
D45*
X24636Y14793D02*
D03*
X24183D02*
D03*
X7549Y18288D02*
D03*
X8002D02*
D03*
X7549Y17028D02*
D03*
X8002D02*
D03*
X24636Y9744D02*
D03*
X24183D02*
D03*
X24636Y11811D02*
D03*
X24183D02*
D03*
X24636Y13780D02*
D03*
X24183D02*
D03*
X24636Y18307D02*
D03*
X24183D02*
D03*
D46*
X16011Y17598D02*
D03*
X15755D02*
D03*
X15499D02*
D03*
X15243D02*
D03*
X14987D02*
D03*
X14731D02*
D03*
X14476D02*
D03*
X16011Y15276D02*
D03*
X15755D02*
D03*
X15499D02*
D03*
X15243D02*
D03*
X14987D02*
D03*
X14731D02*
D03*
X14476D02*
D03*
D47*
X11654Y21088D02*
D03*
X11811D02*
D03*
X11968D02*
D03*
X11654Y21432D02*
D03*
X11811D02*
D03*
X11968D02*
D03*
D48*
X11677Y22096D02*
Y22620D01*
X11667Y22086D02*
X11677Y22096D01*
X11654Y21514D02*
X11667Y21528D01*
X11659Y21164D02*
X11667D01*
Y21355D01*
X11659D02*
X11667D01*
Y21528D02*
Y22086D01*
X11654Y21361D02*
Y21432D01*
Y21514D01*
Y21159D02*
X11659Y21164D01*
X11654Y21361D02*
X11659Y21355D01*
X11654Y21005D02*
Y21088D01*
Y21005D02*
X11667Y20992D01*
X11654Y21088D02*
Y21159D01*
X11667Y19899D02*
X11847Y19718D01*
X11667Y19899D02*
Y20992D01*
X11648Y22649D02*
X11677Y22620D01*
X11614Y22963D02*
X11648Y22929D01*
Y22649D02*
Y22929D01*
X10130Y19718D02*
X10314D01*
X9949Y19718D02*
X10130D01*
X10314Y19718D02*
X10386Y19646D01*
X10400D01*
X10130Y19718D02*
X10130Y19718D01*
X9896Y19620D02*
Y19666D01*
X9949Y19718D01*
X9764Y19488D02*
X9896Y19620D01*
X11836Y22929D02*
X11870Y22963D01*
X11836Y22649D02*
Y22929D01*
X11807Y22620D02*
X11836Y22649D01*
X11805Y21164D02*
X11811Y21159D01*
X11805Y21355D02*
X11811Y21361D01*
X11807Y22042D02*
Y22620D01*
X11811Y21432D02*
Y21514D01*
X11797Y21528D02*
Y22032D01*
X11811Y21361D02*
Y21432D01*
X11797Y21164D02*
Y21355D01*
X11811Y21088D02*
Y21159D01*
Y21005D02*
Y21088D01*
X11797Y20992D02*
X11811Y21005D01*
X11797Y19952D02*
X11901Y19848D01*
X11797Y19952D02*
Y20992D01*
Y22032D02*
X11807Y22042D01*
X11797Y21528D02*
X11811Y21514D01*
X11797Y21164D02*
X11805D01*
X11797Y21355D02*
X11805D01*
X9764Y20079D02*
X9896Y19947D01*
X10386Y19921D02*
X10400D01*
X10314Y19848D02*
X10386Y19921D01*
X9896Y19901D02*
X9949Y19848D01*
X10076D02*
X10076Y19848D01*
X9896Y19901D02*
Y19947D01*
X10076Y19848D02*
X10314D01*
X9949Y19848D02*
X10076D01*
X12101Y19921D02*
X12106D01*
X12029Y19848D02*
X12101Y19921D01*
X11901Y19848D02*
X12029D01*
X12101Y19646D02*
X12106D01*
X12029Y19718D02*
X12101Y19646D01*
X11847Y19718D02*
X12029D01*
X8406Y19941D02*
X8445D01*
X8537Y19848D01*
X8949D01*
X9002Y19620D02*
Y19666D01*
X8537Y19718D02*
X8949D01*
X8445Y19626D02*
X8537Y19718D01*
X8949D02*
X9002Y19666D01*
X8406Y19626D02*
X8445D01*
X9002Y19947D02*
X9134Y20079D01*
X9002Y19901D02*
Y19947D01*
X8949Y19848D02*
X9002Y19901D01*
X9002Y19620D02*
X9134Y19488D01*
X4190Y19723D02*
X6920D01*
X6925Y19718D02*
X7604D01*
X7697Y19626D01*
X4190Y19853D02*
X6974D01*
X7604Y19848D02*
X7697Y19941D01*
X3755Y19288D02*
X4190Y19723D01*
X3755Y20288D02*
X4190Y19853D01*
X6920Y19723D02*
X6925Y19718D01*
X6979Y19848D02*
X7604D01*
X7697Y19626D02*
X7736D01*
X7697Y19941D02*
X7736D01*
X6974Y19853D02*
X6979Y19848D01*
D49*
X12067Y24016D02*
X13258D01*
X9970D02*
X11161D01*
D50*
X3755Y18288D02*
X6614D01*
Y18288D01*
X7549D01*
D51*
X24409Y14793D02*
D03*
X7775Y18288D02*
D03*
X7776Y17028D02*
D03*
X24409Y9744D02*
D03*
X24409Y11811D02*
D03*
Y13780D02*
D03*
Y18307D02*
D03*
D52*
X28755Y20288D02*
D03*
Y19288D02*
D03*
Y18288D02*
D03*
Y17288D02*
D03*
Y16288D02*
D03*
Y15288D02*
D03*
Y14288D02*
D03*
Y13288D02*
D03*
Y12288D02*
D03*
Y11288D02*
D03*
Y10288D02*
D03*
Y9288D02*
D03*
Y8288D02*
D03*
Y7288D02*
D03*
Y6288D02*
D03*
Y5288D02*
D03*
Y4288D02*
D03*
Y3288D02*
D03*
Y2288D02*
D03*
Y1288D02*
D03*
X27755D02*
D03*
Y19288D02*
D03*
Y18288D02*
D03*
Y17288D02*
D03*
Y16288D02*
D03*
Y15288D02*
D03*
Y14288D02*
D03*
Y13288D02*
D03*
Y12288D02*
D03*
Y11288D02*
D03*
Y10288D02*
D03*
Y9288D02*
D03*
Y8288D02*
D03*
Y7288D02*
D03*
Y6288D02*
D03*
Y5288D02*
D03*
Y4288D02*
D03*
Y3288D02*
D03*
Y2288D02*
D03*
X3755Y20288D02*
D03*
Y19288D02*
D03*
Y18288D02*
D03*
Y17288D02*
D03*
Y16288D02*
D03*
Y15288D02*
D03*
Y14288D02*
D03*
Y13288D02*
D03*
Y12288D02*
D03*
Y11288D02*
D03*
Y10288D02*
D03*
Y9288D02*
D03*
Y8288D02*
D03*
Y7288D02*
D03*
Y6288D02*
D03*
Y5288D02*
D03*
Y4288D02*
D03*
Y3288D02*
D03*
Y2288D02*
D03*
Y1288D02*
D03*
X2755D02*
D03*
Y19288D02*
D03*
Y18288D02*
D03*
Y17288D02*
D03*
Y16288D02*
D03*
Y15288D02*
D03*
Y14288D02*
D03*
Y13288D02*
D03*
Y12288D02*
D03*
Y11288D02*
D03*
Y10288D02*
D03*
Y9288D02*
D03*
Y8288D02*
D03*
Y7288D02*
D03*
Y6288D02*
D03*
Y5288D02*
D03*
Y4288D02*
D03*
Y3288D02*
D03*
Y2288D02*
D03*
D53*
X27755Y20288D02*
D03*
X2755D02*
D03*
D54*
X9970Y24016D02*
D03*
X13258D02*
D03*
D55*
X10738Y22835D02*
D03*
X12490D02*
D03*
D56*
X1385Y23221D02*
D03*
X30125D02*
D03*
D57*
X13504Y16929D02*
D03*
X12126Y22165D02*
D03*
X17717Y15551D02*
D03*
X19291Y19291D02*
D03*
Y10768D02*
D03*
X18504Y11811D02*
D03*
X16929Y14567D02*
D03*
X10400Y19646D02*
D03*
Y19921D02*
D03*
X12106D02*
D03*
Y19646D02*
D03*
X9449Y18288D02*
D03*
X15657Y19310D02*
D03*
X11358Y22299D02*
D03*
X9449Y16732D02*
D03*
X15755Y14699D02*
D03*
X15499D02*
D03*
X15243D02*
D03*
X15499Y18219D02*
D03*
X15243Y16949D02*
D03*
X14587Y14075D02*
D03*
M02*
