G04*
G04 #@! TF.GenerationSoftware,Altium Limited,Altium Designer,25.8.1 (18)*
G04*
G04 Layer_Physical_Order=2*
G04 Layer_Color=16711680*
%FSLAX24Y24*%
%MOIN*%
G70*
G04*
G04 #@! TF.SameCoordinates,09999318-E88C-4F9F-A6D3-71EC491E3F06*
G04*
G04*
G04 #@! TF.FilePolarity,Positive*
G04*
G01*
G75*
%ADD13C,0.0059*%
%ADD16C,0.0100*%
%ADD17C,0.0050*%
%ADD37C,0.0150*%
%ADD38C,0.0080*%
%ADD48C,0.0090*%
%ADD52C,0.0700*%
%ADD53R,0.0700X0.0700*%
G04:AMPARAMS|DCode=54|XSize=39.4mil|YSize=74.8mil|CornerRadius=19.7mil|HoleSize=0mil|Usage=FLASHONLY|Rotation=180.000|XOffset=0mil|YOffset=0mil|HoleType=Round|Shape=RoundedRectangle|*
%AMROUNDEDRECTD54*
21,1,0.0394,0.0354,0,0,180.0*
21,1,0.0000,0.0748,0,0,180.0*
1,1,0.0394,0.0000,0.0177*
1,1,0.0394,0.0000,0.0177*
1,1,0.0394,0.0000,-0.0177*
1,1,0.0394,0.0000,-0.0177*
%
%ADD54ROUNDEDRECTD54*%
G04:AMPARAMS|DCode=55|XSize=41.3mil|YSize=49.2mil|CornerRadius=20.7mil|HoleSize=0mil|Usage=FLASHONLY|Rotation=180.000|XOffset=0mil|YOffset=0mil|HoleType=Round|Shape=RoundedRectangle|*
%AMROUNDEDRECTD55*
21,1,0.0413,0.0079,0,0,180.0*
21,1,0.0000,0.0492,0,0,180.0*
1,1,0.0413,0.0000,0.0039*
1,1,0.0413,0.0000,0.0039*
1,1,0.0413,0.0000,-0.0039*
1,1,0.0413,0.0000,-0.0039*
%
%ADD55ROUNDEDRECTD55*%
%ADD56C,0.1181*%
%ADD57C,0.0140*%
G36*
X3737Y24431D02*
X9423D01*
X9477Y24386D01*
X9575Y24231D01*
X9570Y24193D01*
Y23839D01*
X9584Y23735D01*
X9624Y23638D01*
X9687Y23556D01*
X9770Y23492D01*
X9867Y23452D01*
X9970Y23438D01*
X10074Y23452D01*
X10171Y23492D01*
X10254Y23556D01*
X10317Y23638D01*
X10357Y23735D01*
X10371Y23839D01*
Y24193D01*
X10366Y24231D01*
X10464Y24386D01*
X10518Y24431D01*
X12711D01*
X12764Y24386D01*
X12863Y24231D01*
X12858Y24193D01*
Y23839D01*
X12861Y23816D01*
X12747Y23647D01*
X12704Y23616D01*
X11847D01*
X11837Y23614D01*
X11707Y23601D01*
X11571Y23560D01*
X11446Y23493D01*
X11337Y23403D01*
X11247Y23294D01*
X11220Y23243D01*
X11143Y23211D01*
X11027Y23193D01*
X10981Y23200D01*
X10943Y23229D01*
X10844Y23270D01*
X10738Y23284D01*
X10632Y23270D01*
X10533Y23229D01*
X10448Y23164D01*
X10383Y23079D01*
X10342Y22980D01*
X10328Y22874D01*
Y22795D01*
X10342Y22689D01*
X10383Y22590D01*
X10448Y22505D01*
X10533Y22440D01*
X10632Y22399D01*
X10738Y22385D01*
X10844Y22399D01*
X10910Y22426D01*
X10929Y22421D01*
X11015Y22369D01*
X11086Y22299D01*
X11095Y22229D01*
X11122Y22163D01*
X11166Y22107D01*
X11222Y22064D01*
X11288Y22036D01*
X11358Y22027D01*
X11429Y22036D01*
X11494Y22064D01*
X11551Y22107D01*
X11594Y22163D01*
X11621Y22229D01*
X11631Y22299D01*
X11621Y22370D01*
X11594Y22436D01*
X11592Y22438D01*
Y22893D01*
X11590Y22904D01*
X11608Y22992D01*
X11664Y23076D01*
X11748Y23132D01*
X11836Y23150D01*
X11847Y23148D01*
X11947D01*
X12059Y23020D01*
X12090Y22948D01*
X12080Y22874D01*
Y22795D01*
X12094Y22689D01*
X12116Y22637D01*
X12082Y22526D01*
X12066Y22491D01*
X12016Y22417D01*
X11987Y22406D01*
X11930Y22361D01*
X11886Y22304D01*
X11858Y22237D01*
X11849Y22165D01*
X11848D01*
X11860Y22042D01*
X11896Y21923D01*
X11955Y21814D01*
X12033Y21718D01*
X12129Y21640D01*
X12238Y21581D01*
X12357Y21545D01*
X12480Y21533D01*
X12672Y21512D01*
X12781Y21479D01*
X12906Y21413D01*
X13016Y21323D01*
X13105Y21213D01*
X13172Y21088D01*
X13214Y20952D01*
X13227Y20815D01*
X13227Y20811D01*
Y16929D01*
X13236Y16857D01*
X13264Y16790D01*
X13308Y16733D01*
X13365Y16689D01*
X13432Y16661D01*
X13504Y16652D01*
X13576Y16661D01*
X13643Y16689D01*
X13700Y16733D01*
X13744Y16790D01*
X13772Y16857D01*
X13781Y16929D01*
Y20811D01*
X13783D01*
X13767Y21011D01*
X13720Y21206D01*
X13643Y21392D01*
X13539Y21563D01*
X13408Y21715D01*
X13256Y21846D01*
X13085Y21951D01*
X12899Y22027D01*
X12704Y22074D01*
X12541Y22087D01*
X12454Y22223D01*
X12561Y22394D01*
X12596Y22399D01*
X12695Y22440D01*
X12780Y22505D01*
X12845Y22590D01*
X12886Y22689D01*
X12900Y22795D01*
Y22874D01*
X12891Y22948D01*
X12921Y23020D01*
X13033Y23148D01*
X14361D01*
X14372Y23150D01*
X14511Y23136D01*
X14656Y23092D01*
X14789Y23021D01*
X14905Y22926D01*
X15001Y22809D01*
X15072Y22676D01*
X15116Y22532D01*
X15129Y22392D01*
X15127Y22382D01*
Y18356D01*
X15131Y18337D01*
X15141Y18260D01*
X15178Y18171D01*
X15237Y18094D01*
X15278Y18063D01*
X15307Y18026D01*
X15363Y17983D01*
X15429Y17955D01*
X15499Y17946D01*
X15570Y17955D01*
X15635Y17983D01*
X15692Y18026D01*
X15735Y18082D01*
X15762Y18148D01*
X15771Y18219D01*
X15762Y18289D01*
X15735Y18355D01*
X15692Y18411D01*
X15635Y18454D01*
X15595Y18471D01*
Y22382D01*
X15594Y22388D01*
X15579Y22575D01*
X15534Y22763D01*
X15460Y22942D01*
X15359Y23107D01*
X15233Y23254D01*
X15086Y23380D01*
X14921Y23481D01*
X14742Y23555D01*
X14554Y23600D01*
X14367Y23615D01*
X14361Y23616D01*
X13812D01*
X13768Y23647D01*
X13655Y23816D01*
X13658Y23839D01*
Y24193D01*
X13653Y24231D01*
X13752Y24386D01*
X13805Y24431D01*
X27733Y24431D01*
X27733Y24431D01*
X27733Y24431D01*
X27733D01*
X27919Y24415D01*
X28021Y24395D01*
X28201Y24322D01*
X28363Y24215D01*
X28502Y24078D01*
X28610Y23917D01*
X28648Y23829D01*
X28601Y23717D01*
X28542Y23472D01*
X28523Y23221D01*
X28542Y22971D01*
X28601Y22726D01*
X28697Y22494D01*
X28829Y22279D01*
X28992Y22088D01*
X29183Y21925D01*
X29398Y21793D01*
X29630Y21697D01*
X29874Y21639D01*
X30125Y21619D01*
X30376Y21639D01*
X30620Y21697D01*
X30769Y21759D01*
X30926Y21653D01*
X31062Y21515D01*
X31168Y21353D01*
X31241Y21174D01*
X31278Y20984D01*
X31277Y20887D01*
X31277Y1215D01*
X31277Y1215D01*
Y1119D01*
X31240Y929D01*
X31166Y750D01*
X31058Y590D01*
X30922Y453D01*
X30761Y346D01*
X30582Y272D01*
X30393Y234D01*
X24351D01*
X24257Y364D01*
X24231Y434D01*
X24244Y500D01*
Y1500D01*
X24225Y1593D01*
X24173Y1673D01*
X24093Y1725D01*
X24000Y1744D01*
X22000D01*
X21907Y1725D01*
X21827Y1673D01*
X21775Y1593D01*
X21756Y1500D01*
Y500D01*
X21769Y434D01*
X21743Y364D01*
X21649Y234D01*
X1164D01*
X1071Y247D01*
X893Y302D01*
X726Y385D01*
X575Y494D01*
X443Y626D01*
X334Y778D01*
X250Y945D01*
X195Y1123D01*
X182Y1215D01*
X182Y20695D01*
X182Y20695D01*
X182Y20895D01*
X183Y20910D01*
X209Y21051D01*
X252Y21187D01*
X313Y21317D01*
X391Y21438D01*
X484Y21547D01*
X590Y21644D01*
X708Y21726D01*
X758Y21752D01*
X890Y21697D01*
X1134Y21639D01*
X1385Y21619D01*
X1636Y21639D01*
X1880Y21697D01*
X2113Y21793D01*
X2327Y21925D01*
X2518Y22088D01*
X2681Y22279D01*
X2813Y22494D01*
X2909Y22726D01*
X2968Y22971D01*
X2988Y23221D01*
X2968Y23472D01*
X2909Y23717D01*
X2834Y23897D01*
X2872Y23976D01*
X2984Y24126D01*
X3123Y24251D01*
X3283Y24347D01*
X3459Y24409D01*
X3644Y24436D01*
X3737Y24431D01*
D02*
G37*
%LPC*%
G36*
X28755Y20843D02*
X28611Y20824D01*
X28505Y20780D01*
X28305Y20838D01*
Y20838D01*
X27205D01*
Y19738D01*
X27205Y19738D01*
X27263Y19538D01*
X27219Y19432D01*
X27200Y19288D01*
X27219Y19145D01*
X27275Y19011D01*
X27363Y18896D01*
Y18681D01*
X27275Y18566D01*
X27219Y18432D01*
X27200Y18288D01*
X27219Y18145D01*
X27275Y18011D01*
X27363Y17896D01*
Y17681D01*
X27275Y17566D01*
X27219Y17432D01*
X27200Y17288D01*
X27219Y17145D01*
X27275Y17011D01*
X27363Y16896D01*
Y16681D01*
X27275Y16566D01*
X27219Y16432D01*
X27200Y16288D01*
X27219Y16145D01*
X27275Y16011D01*
X27363Y15896D01*
Y15681D01*
X27275Y15566D01*
X27219Y15432D01*
X27200Y15288D01*
X27219Y15145D01*
X27275Y15011D01*
X27363Y14896D01*
Y14681D01*
X27275Y14566D01*
X27219Y14432D01*
X27200Y14288D01*
X27219Y14145D01*
X27275Y14011D01*
X27363Y13896D01*
Y13681D01*
X27275Y13566D01*
X27219Y13432D01*
X27200Y13288D01*
X27219Y13145D01*
X27275Y13011D01*
X27363Y12896D01*
Y12681D01*
X27275Y12566D01*
X27219Y12432D01*
X27200Y12288D01*
X27219Y12145D01*
X27275Y12011D01*
X27363Y11896D01*
Y11681D01*
X27275Y11566D01*
X27219Y11432D01*
X27200Y11288D01*
X27219Y11145D01*
X27275Y11011D01*
X27363Y10896D01*
Y10681D01*
X27275Y10566D01*
X27219Y10432D01*
X27200Y10288D01*
X27219Y10145D01*
X27275Y10011D01*
X27363Y9896D01*
Y9681D01*
X27275Y9566D01*
X27219Y9432D01*
X27200Y9288D01*
X27219Y9145D01*
X27275Y9011D01*
X27363Y8896D01*
Y8681D01*
X27275Y8566D01*
X27219Y8432D01*
X27200Y8288D01*
X27219Y8145D01*
X27275Y8011D01*
X27363Y7896D01*
Y7681D01*
X27275Y7566D01*
X27219Y7432D01*
X27200Y7288D01*
X27219Y7145D01*
X27275Y7011D01*
X27363Y6896D01*
Y6681D01*
X27275Y6566D01*
X27219Y6432D01*
X27200Y6288D01*
X27219Y6145D01*
X27275Y6011D01*
X27363Y5896D01*
Y5681D01*
X27275Y5566D01*
X27219Y5432D01*
X27200Y5288D01*
X27219Y5145D01*
X27275Y5011D01*
X27363Y4896D01*
Y4681D01*
X27275Y4566D01*
X27219Y4432D01*
X27200Y4288D01*
X27219Y4145D01*
X27275Y4011D01*
X27363Y3896D01*
Y3681D01*
X27275Y3566D01*
X27219Y3432D01*
X27200Y3288D01*
X27219Y3145D01*
X27275Y3011D01*
X27363Y2896D01*
Y2681D01*
X27275Y2566D01*
X27219Y2432D01*
X27200Y2288D01*
X27219Y2145D01*
X27275Y2011D01*
X27363Y1896D01*
Y1681D01*
X27275Y1566D01*
X27219Y1432D01*
X27200Y1288D01*
X27219Y1145D01*
X27275Y1011D01*
X27363Y896D01*
X27478Y808D01*
X27611Y752D01*
X27755Y734D01*
X27899Y752D01*
X28032Y808D01*
X28147Y896D01*
X28363D01*
X28478Y808D01*
X28611Y752D01*
X28755Y734D01*
X28899Y752D01*
X29032Y808D01*
X29147Y896D01*
X29235Y1011D01*
X29291Y1145D01*
X29310Y1288D01*
X29291Y1432D01*
X29235Y1566D01*
X29147Y1681D01*
Y1896D01*
X29235Y2011D01*
X29291Y2145D01*
X29310Y2288D01*
X29291Y2432D01*
X29235Y2566D01*
X29147Y2681D01*
Y2896D01*
X29235Y3011D01*
X29291Y3145D01*
X29310Y3288D01*
X29291Y3432D01*
X29235Y3566D01*
X29147Y3681D01*
Y3896D01*
X29235Y4011D01*
X29291Y4145D01*
X29310Y4288D01*
X29291Y4432D01*
X29235Y4566D01*
X29147Y4681D01*
Y4896D01*
X29235Y5011D01*
X29291Y5145D01*
X29310Y5288D01*
X29291Y5432D01*
X29235Y5566D01*
X29147Y5681D01*
Y5896D01*
X29235Y6011D01*
X29291Y6145D01*
X29310Y6288D01*
X29291Y6432D01*
X29235Y6566D01*
X29147Y6681D01*
Y6896D01*
X29235Y7011D01*
X29291Y7145D01*
X29310Y7288D01*
X29291Y7432D01*
X29235Y7566D01*
X29147Y7681D01*
Y7896D01*
X29235Y8011D01*
X29291Y8145D01*
X29310Y8288D01*
X29291Y8432D01*
X29235Y8566D01*
X29147Y8681D01*
Y8896D01*
X29235Y9011D01*
X29291Y9145D01*
X29310Y9288D01*
X29291Y9432D01*
X29235Y9566D01*
X29147Y9681D01*
Y9896D01*
X29235Y10011D01*
X29291Y10145D01*
X29310Y10288D01*
X29291Y10432D01*
X29235Y10566D01*
X29147Y10681D01*
Y10896D01*
X29235Y11011D01*
X29291Y11145D01*
X29310Y11288D01*
X29291Y11432D01*
X29235Y11566D01*
X29147Y11681D01*
Y11896D01*
X29235Y12011D01*
X29291Y12145D01*
X29310Y12288D01*
X29291Y12432D01*
X29235Y12566D01*
X29147Y12681D01*
Y12896D01*
X29235Y13011D01*
X29291Y13145D01*
X29310Y13288D01*
X29291Y13432D01*
X29235Y13566D01*
X29147Y13681D01*
Y13896D01*
X29235Y14011D01*
X29291Y14145D01*
X29310Y14288D01*
X29291Y14432D01*
X29235Y14566D01*
X29147Y14681D01*
Y14896D01*
X29235Y15011D01*
X29291Y15145D01*
X29310Y15288D01*
X29291Y15432D01*
X29235Y15566D01*
X29147Y15681D01*
X29064Y15745D01*
X29061Y15750D01*
X29043Y15877D01*
X29048Y15926D01*
X28720Y16253D01*
X28755Y16288D01*
X28720Y16323D01*
X29048Y16651D01*
X29043Y16699D01*
X29061Y16827D01*
X29064Y16832D01*
X29147Y16896D01*
X29235Y17011D01*
X29291Y17145D01*
X29310Y17288D01*
X29291Y17432D01*
X29235Y17566D01*
X29147Y17681D01*
Y17896D01*
X29235Y18011D01*
X29291Y18145D01*
X29310Y18288D01*
X29291Y18432D01*
X29235Y18566D01*
X29147Y18681D01*
Y18896D01*
X29235Y19011D01*
X29291Y19145D01*
X29310Y19288D01*
X29291Y19432D01*
X29235Y19566D01*
X29147Y19681D01*
Y19896D01*
X29235Y20011D01*
X29291Y20145D01*
X29310Y20288D01*
X29291Y20432D01*
X29235Y20566D01*
X29147Y20681D01*
X29032Y20769D01*
X28899Y20824D01*
X28755Y20843D01*
D02*
G37*
G36*
X3755D02*
X3611Y20824D01*
X3505Y20780D01*
X3305Y20838D01*
Y20838D01*
X2205D01*
Y19738D01*
X2205Y19738D01*
X2263Y19538D01*
X2219Y19432D01*
X2200Y19288D01*
X2219Y19145D01*
X2275Y19011D01*
X2363Y18896D01*
Y18681D01*
X2275Y18566D01*
X2219Y18432D01*
X2200Y18288D01*
X2219Y18145D01*
X2275Y18011D01*
X2363Y17896D01*
Y17681D01*
X2275Y17566D01*
X2219Y17432D01*
X2200Y17288D01*
X2219Y17145D01*
X2275Y17011D01*
X2363Y16896D01*
Y16681D01*
X2275Y16566D01*
X2219Y16432D01*
X2200Y16288D01*
X2219Y16145D01*
X2275Y16011D01*
X2363Y15896D01*
Y15681D01*
X2275Y15566D01*
X2219Y15432D01*
X2200Y15288D01*
X2219Y15145D01*
X2275Y15011D01*
X2363Y14896D01*
Y14681D01*
X2275Y14566D01*
X2219Y14432D01*
X2200Y14288D01*
X2219Y14145D01*
X2275Y14011D01*
X2363Y13896D01*
X2446Y13832D01*
X2449Y13827D01*
X2467Y13699D01*
X2462Y13651D01*
X2790Y13323D01*
X2755Y13288D01*
X2790Y13253D01*
X2462Y12926D01*
X2467Y12877D01*
X2449Y12750D01*
X2446Y12745D01*
X2363Y12681D01*
X2275Y12566D01*
X2219Y12432D01*
X2200Y12288D01*
X2219Y12145D01*
X2275Y12011D01*
X2363Y11896D01*
Y11681D01*
X2275Y11566D01*
X2219Y11432D01*
X2200Y11288D01*
X2219Y11145D01*
X2275Y11011D01*
X2363Y10896D01*
Y10681D01*
X2275Y10566D01*
X2219Y10432D01*
X2200Y10288D01*
X2219Y10145D01*
X2275Y10011D01*
X2363Y9896D01*
Y9681D01*
X2275Y9566D01*
X2219Y9432D01*
X2200Y9288D01*
X2219Y9145D01*
X2275Y9011D01*
X2363Y8896D01*
Y8681D01*
X2275Y8566D01*
X2219Y8432D01*
X2200Y8288D01*
X2219Y8145D01*
X2275Y8011D01*
X2363Y7896D01*
Y7681D01*
X2275Y7566D01*
X2219Y7432D01*
X2200Y7288D01*
X2219Y7145D01*
X2275Y7011D01*
X2363Y6896D01*
Y6681D01*
X2275Y6566D01*
X2219Y6432D01*
X2200Y6288D01*
X2219Y6145D01*
X2275Y6011D01*
X2363Y5896D01*
Y5681D01*
X2275Y5566D01*
X2219Y5432D01*
X2200Y5288D01*
X2219Y5145D01*
X2275Y5011D01*
X2363Y4896D01*
Y4681D01*
X2275Y4566D01*
X2219Y4432D01*
X2200Y4288D01*
X2219Y4145D01*
X2275Y4011D01*
X2363Y3896D01*
Y3681D01*
X2275Y3566D01*
X2219Y3432D01*
X2200Y3288D01*
X2219Y3145D01*
X2275Y3011D01*
X2363Y2896D01*
Y2681D01*
X2275Y2566D01*
X2219Y2432D01*
X2200Y2288D01*
X2219Y2145D01*
X2275Y2011D01*
X2363Y1896D01*
Y1681D01*
X2275Y1566D01*
X2219Y1432D01*
X2200Y1288D01*
X2219Y1145D01*
X2275Y1011D01*
X2363Y896D01*
X2478Y808D01*
X2611Y752D01*
X2755Y734D01*
X2899Y752D01*
X3032Y808D01*
X3147Y896D01*
X3363D01*
X3478Y808D01*
X3611Y752D01*
X3755Y734D01*
X3899Y752D01*
X4032Y808D01*
X4147Y896D01*
X4235Y1011D01*
X4291Y1145D01*
X4310Y1288D01*
X4291Y1432D01*
X4235Y1566D01*
X4147Y1681D01*
Y1896D01*
X4235Y2011D01*
X4291Y2145D01*
X4310Y2288D01*
X4291Y2432D01*
X4235Y2566D01*
X4147Y2681D01*
Y2896D01*
X4235Y3011D01*
X4291Y3145D01*
X4310Y3288D01*
X4291Y3432D01*
X4235Y3566D01*
X4147Y3681D01*
Y3896D01*
X4235Y4011D01*
X4291Y4145D01*
X4310Y4288D01*
X4291Y4432D01*
X4235Y4566D01*
X4147Y4681D01*
Y4896D01*
X4235Y5011D01*
X4291Y5145D01*
X4310Y5288D01*
X4291Y5432D01*
X4235Y5566D01*
X4147Y5681D01*
Y5896D01*
X4235Y6011D01*
X4291Y6145D01*
X4310Y6288D01*
X4291Y6432D01*
X4235Y6566D01*
X4147Y6681D01*
Y6896D01*
X4235Y7011D01*
X4291Y7145D01*
X4310Y7288D01*
X4291Y7432D01*
X4235Y7566D01*
X4147Y7681D01*
Y7896D01*
X4235Y8011D01*
X4291Y8145D01*
X4310Y8288D01*
X4291Y8432D01*
X4235Y8566D01*
X4147Y8681D01*
Y8896D01*
X4235Y9011D01*
X4291Y9145D01*
X4310Y9288D01*
X4291Y9432D01*
X4235Y9566D01*
X4147Y9681D01*
Y9896D01*
X4235Y10011D01*
X4291Y10145D01*
X4310Y10288D01*
X4291Y10432D01*
X4235Y10566D01*
X4147Y10681D01*
Y10896D01*
X4235Y11011D01*
X4291Y11145D01*
X4310Y11288D01*
X4291Y11432D01*
X4235Y11566D01*
X4147Y11681D01*
Y11896D01*
X4235Y12011D01*
X4291Y12145D01*
X4310Y12288D01*
X4291Y12432D01*
X4235Y12566D01*
X4147Y12681D01*
Y12896D01*
X4235Y13011D01*
X4291Y13145D01*
X4310Y13288D01*
X4291Y13432D01*
X4235Y13566D01*
X4147Y13681D01*
Y13896D01*
X4235Y14011D01*
X4291Y14145D01*
X4310Y14288D01*
X4291Y14432D01*
X4235Y14566D01*
X4147Y14681D01*
Y14896D01*
X4235Y15011D01*
X4291Y15145D01*
X4310Y15288D01*
X4291Y15432D01*
X4235Y15566D01*
X4147Y15681D01*
Y15896D01*
X4235Y16011D01*
X4291Y16145D01*
X4310Y16288D01*
X4291Y16432D01*
X4235Y16566D01*
X4147Y16681D01*
Y16896D01*
X4235Y17011D01*
X4291Y17145D01*
X4310Y17288D01*
X4291Y17432D01*
X4235Y17566D01*
X4147Y17681D01*
Y17896D01*
X4235Y18011D01*
X4291Y18145D01*
X4310Y18288D01*
X4291Y18432D01*
X4235Y18566D01*
X4147Y18681D01*
Y18896D01*
X4235Y19011D01*
X4291Y19145D01*
X4310Y19288D01*
X4291Y19432D01*
X4235Y19566D01*
X4147Y19681D01*
Y19896D01*
X4235Y20011D01*
X4291Y20145D01*
X4310Y20288D01*
X4291Y20432D01*
X4235Y20566D01*
X4147Y20681D01*
X4032Y20769D01*
X3899Y20824D01*
X3755Y20843D01*
D02*
G37*
G36*
X12106Y20194D02*
X12036Y20184D01*
X11970Y20157D01*
X11914Y20114D01*
X11902Y20098D01*
X10605D01*
X10593Y20114D01*
X10536Y20157D01*
X10470Y20184D01*
X10400Y20194D01*
X10330Y20184D01*
X10264Y20157D01*
X10207Y20114D01*
X10164Y20057D01*
X10137Y19992D01*
X10128Y19921D01*
X10137Y19851D01*
X10164Y19785D01*
X10165Y19783D01*
X10164Y19782D01*
X10137Y19716D01*
X10128Y19646D01*
X10137Y19575D01*
X10164Y19510D01*
X10207Y19453D01*
X10264Y19410D01*
X10330Y19383D01*
X10400Y19373D01*
X10470Y19383D01*
X10536Y19410D01*
X10593Y19453D01*
X10605Y19469D01*
X11902D01*
X11914Y19453D01*
X11970Y19410D01*
X12036Y19383D01*
X12106Y19373D01*
X12177Y19383D01*
X12242Y19410D01*
X12299Y19453D01*
X12342Y19510D01*
X12369Y19575D01*
X12379Y19646D01*
X12369Y19716D01*
X12342Y19782D01*
X12341Y19783D01*
X12342Y19785D01*
X12369Y19851D01*
X12379Y19921D01*
X12369Y19992D01*
X12342Y20057D01*
X12299Y20114D01*
X12242Y20157D01*
X12177Y20184D01*
X12106Y20194D01*
D02*
G37*
G36*
X19291Y19564D02*
X19221Y19554D01*
X19155Y19527D01*
X19099Y19484D01*
X19055Y19427D01*
X19028Y19362D01*
X19019Y19291D01*
X19028Y19221D01*
X19055Y19155D01*
X19099Y19099D01*
X19155Y19055D01*
X19221Y19028D01*
X19291Y19019D01*
X19362Y19028D01*
X19427Y19055D01*
X19484Y19099D01*
X19527Y19155D01*
X19554Y19221D01*
X19564Y19291D01*
X19554Y19362D01*
X19527Y19427D01*
X19484Y19484D01*
X19427Y19527D01*
X19362Y19554D01*
X19291Y19564D01*
D02*
G37*
G36*
X29091Y16555D02*
X28825Y16288D01*
X29091Y16022D01*
X29130Y16072D01*
X29173Y16176D01*
X29187Y16288D01*
X29173Y16400D01*
X29130Y16504D01*
X29091Y16555D01*
D02*
G37*
G36*
X15243Y17221D02*
X15173Y17212D01*
X15107Y17185D01*
X15051Y17141D01*
X15007Y17085D01*
X14980Y17019D01*
X14971Y16949D01*
X14980Y16878D01*
X15007Y16813D01*
X15020Y16796D01*
X15050Y16698D01*
X15111Y16584D01*
X15192Y16485D01*
X15292Y16403D01*
X15405Y16342D01*
X15529Y16305D01*
X15641Y16294D01*
X15657Y16291D01*
X17307D01*
X17321Y16293D01*
X17453Y16276D01*
X17589Y16220D01*
X17705Y16130D01*
X17794Y16015D01*
X17793Y16009D01*
X17767Y15946D01*
X17661Y15817D01*
X17657Y15816D01*
X17646Y15814D01*
X17580Y15787D01*
X17524Y15744D01*
X17481Y15687D01*
X17453Y15622D01*
X17444Y15551D01*
X17453Y15481D01*
X17472Y15436D01*
Y14616D01*
X17473Y14609D01*
X17465Y14542D01*
X17446Y14527D01*
X17396Y14509D01*
X17345Y14524D01*
X17192Y14637D01*
X17165Y14703D01*
X17122Y14759D01*
X17065Y14803D01*
X17000Y14830D01*
X16929Y14839D01*
X16859Y14830D01*
X16793Y14803D01*
X16737Y14759D01*
X16693Y14703D01*
X16666Y14637D01*
X16662Y14605D01*
X16217D01*
X16027Y14699D01*
X16018Y14769D01*
X15991Y14835D01*
X15979Y14850D01*
X15973Y14925D01*
X15928Y15113D01*
X15854Y15292D01*
X15753Y15457D01*
X15627Y15604D01*
X15480Y15730D01*
X15315Y15831D01*
X15136Y15905D01*
X14948Y15950D01*
X14761Y15965D01*
X14755Y15966D01*
X9970D01*
X9965Y15965D01*
X9896Y15974D01*
X9826Y16003D01*
X9766Y16049D01*
X9720Y16109D01*
X9691Y16179D01*
X9682Y16248D01*
X9683Y16254D01*
Y16594D01*
X9685Y16596D01*
X9712Y16662D01*
X9721Y16732D01*
X9712Y16803D01*
X9685Y16868D01*
X9641Y16925D01*
X9585Y16968D01*
X9519Y16995D01*
X9449Y17005D01*
X9378Y16995D01*
X9313Y16968D01*
X9256Y16925D01*
X9213Y16868D01*
X9186Y16803D01*
X9176Y16732D01*
X9186Y16662D01*
X9213Y16596D01*
X9215Y16594D01*
Y16254D01*
X9216Y16245D01*
X9230Y16107D01*
X9273Y15965D01*
X9343Y15835D01*
X9437Y15720D01*
X9551Y15626D01*
X9682Y15557D01*
X9823Y15514D01*
X9962Y15500D01*
X9970Y15498D01*
X14755D01*
X14766Y15500D01*
X14905Y15487D01*
X15049Y15443D01*
X15182Y15372D01*
X15299Y15276D01*
X15395Y15160D01*
X15396Y15157D01*
X15400Y15135D01*
X15399Y15129D01*
X15364Y15060D01*
X15270Y14968D01*
X15243Y14971D01*
X15173Y14962D01*
X15107Y14935D01*
X15051Y14891D01*
X15007Y14835D01*
X14980Y14769D01*
X14971Y14699D01*
X14980Y14628D01*
X15007Y14563D01*
X15013Y14555D01*
X15016Y14526D01*
X15067Y14359D01*
X15149Y14205D01*
X15259Y14071D01*
X15337Y14007D01*
X15341Y14001D01*
X15358Y13990D01*
X15394Y13960D01*
X15547Y13878D01*
X15714Y13828D01*
X15883Y13811D01*
X15887Y13810D01*
X17156D01*
X17164Y13812D01*
X17313Y13827D01*
X17464Y13873D01*
X17603Y13947D01*
X17666Y13998D01*
X17855Y13923D01*
X17866Y13913D01*
Y12205D01*
X17869Y12188D01*
X17879Y12081D01*
X17916Y11961D01*
X17974Y11851D01*
X18054Y11754D01*
X18150Y11675D01*
X18260Y11616D01*
X18349Y11589D01*
X18368Y11575D01*
X18433Y11548D01*
X18504Y11539D01*
X18574Y11548D01*
X18640Y11575D01*
X18697Y11618D01*
X18740Y11675D01*
X18767Y11741D01*
X18776Y11811D01*
X18767Y11882D01*
X18740Y11947D01*
X18697Y12004D01*
X18640Y12047D01*
X18574Y12074D01*
X18504Y12083D01*
X18367Y12229D01*
X18355Y12257D01*
Y15732D01*
X18353Y15745D01*
X18341Y15896D01*
X18302Y16056D01*
X18239Y16207D01*
X18154Y16347D01*
X18047Y16472D01*
X17922Y16579D01*
X17782Y16665D01*
X17630Y16727D01*
X17471Y16766D01*
X17319Y16778D01*
X17307Y16780D01*
X15672D01*
X15642Y16798D01*
X15510Y16910D01*
X15516Y16949D01*
X15506Y17019D01*
X15479Y17085D01*
X15436Y17141D01*
X15379Y17185D01*
X15314Y17212D01*
X15243Y17221D01*
D02*
G37*
G36*
X2419Y13555D02*
X2381Y13505D01*
X2337Y13400D01*
X2323Y13288D01*
X2337Y13176D01*
X2381Y13072D01*
X2419Y13022D01*
X2685Y13288D01*
X2419Y13555D01*
D02*
G37*
G36*
X19291Y11040D02*
X19221Y11031D01*
X19155Y11004D01*
X19099Y10960D01*
X19055Y10904D01*
X19028Y10838D01*
X19019Y10768D01*
X19028Y10697D01*
X19055Y10632D01*
X19099Y10575D01*
X19155Y10532D01*
X19221Y10505D01*
X19291Y10495D01*
X19362Y10505D01*
X19427Y10532D01*
X19484Y10575D01*
X19527Y10632D01*
X19554Y10697D01*
X19564Y10768D01*
X19554Y10838D01*
X19527Y10904D01*
X19484Y10960D01*
X19427Y11004D01*
X19362Y11031D01*
X19291Y11040D01*
D02*
G37*
%LPD*%
D13*
X15361Y22382D02*
G03*
X14361Y23382I-1000J0D01*
G01*
X11847D02*
G03*
X11358Y22893I0J-489D01*
G01*
X15755Y14732D02*
G03*
X14755Y15732I-1000J0D01*
G01*
X9449Y16254D02*
G03*
X9970Y15732I522J0D01*
G01*
X15361Y18356D02*
G03*
X15499Y18219I138J0D01*
G01*
X15361Y18356D02*
Y22382D01*
X11847Y23382D02*
X14361D01*
X11358Y22299D02*
Y22893D01*
X15755Y14699D02*
Y14732D01*
X9970Y15732D02*
X14755D01*
X9449Y16254D02*
Y16732D01*
D16*
X15848Y-1084D02*
Y-1675D01*
X16143D01*
X16242Y-1576D01*
Y-1478D01*
X16143Y-1379D01*
X15848D01*
X16143D01*
X16242Y-1281D01*
Y-1183D01*
X16143Y-1084D01*
X15848D01*
X16537Y-1675D02*
X16734D01*
X16832Y-1576D01*
Y-1379D01*
X16734Y-1281D01*
X16537D01*
X16438Y-1379D01*
Y-1576D01*
X16537Y-1675D01*
X17127Y-1183D02*
Y-1281D01*
X17029D01*
X17226D01*
X17127D01*
Y-1576D01*
X17226Y-1675D01*
X17619Y-1183D02*
Y-1281D01*
X17521D01*
X17718D01*
X17619D01*
Y-1576D01*
X17718Y-1675D01*
X18111D02*
X18308D01*
X18406Y-1576D01*
Y-1379D01*
X18308Y-1281D01*
X18111D01*
X18013Y-1379D01*
Y-1576D01*
X18111Y-1675D01*
X18603D02*
Y-1281D01*
X18701D01*
X18800Y-1379D01*
Y-1675D01*
Y-1379D01*
X18898Y-1281D01*
X18997Y-1379D01*
Y-1675D01*
X19784Y-1084D02*
Y-1675D01*
X20177D01*
X20768D02*
X20374D01*
X20768Y-1281D01*
Y-1183D01*
X20669Y-1084D01*
X20473D01*
X20374Y-1183D01*
X23333Y750D02*
X23667D01*
X23333Y1083D01*
Y1167D01*
X23417Y1250D01*
X23583D01*
X23667Y1167D01*
X2069Y-730D02*
Y-139D01*
X2364D01*
X2462Y-238D01*
Y-435D01*
X2364Y-533D01*
X2069D01*
X3052Y-238D02*
X2954Y-139D01*
X2757D01*
X2659Y-238D01*
Y-631D01*
X2757Y-730D01*
X2954D01*
X3052Y-631D01*
X3249Y-139D02*
Y-730D01*
X3544D01*
X3643Y-631D01*
Y-533D01*
X3544Y-435D01*
X3249D01*
X3544D01*
X3643Y-336D01*
Y-238D01*
X3544Y-139D01*
X3249D01*
X4725D02*
X4528D01*
X4430Y-238D01*
Y-631D01*
X4528Y-730D01*
X4725D01*
X4824Y-631D01*
Y-238D01*
X4725Y-139D01*
X5020Y-336D02*
Y-631D01*
X5119Y-730D01*
X5414D01*
Y-336D01*
X5709Y-238D02*
Y-336D01*
X5611D01*
X5807D01*
X5709D01*
Y-631D01*
X5807Y-730D01*
X6103D02*
X6299D01*
X6201D01*
Y-139D01*
X6103D01*
X6595Y-730D02*
X6791D01*
X6693D01*
Y-336D01*
X6595D01*
X7087Y-730D02*
Y-336D01*
X7382D01*
X7480Y-435D01*
Y-730D01*
X7972D02*
X7775D01*
X7677Y-631D01*
Y-435D01*
X7775Y-336D01*
X7972D01*
X8070Y-435D01*
Y-533D01*
X7677D01*
D17*
X1072Y24606D02*
G03*
X0Y23534I0J-1072D01*
G01*
X31496Y23599D02*
G03*
X30489Y24606I-1007J0D01*
G01*
X30489Y0D02*
G03*
X31496Y1007I0J1007D01*
G01*
X0D02*
G03*
X1007Y0I1007J0D01*
G01*
X0Y1181D02*
Y23534D01*
X1072Y24606D02*
X30489D01*
X31496Y1007D02*
Y23599D01*
X1007Y0D02*
X30489D01*
X0Y1007D02*
Y1181D01*
D37*
X13504Y20811D02*
G03*
X12504Y21811I-1000J0D01*
G01*
X12126Y22165D02*
G03*
X12480Y21811I354J0D01*
G01*
X13504Y16929D02*
Y20811D01*
X12480Y21811D02*
X12504D01*
D38*
X18110Y12205D02*
G03*
X18504Y11811I394J0D01*
G01*
X18110Y15732D02*
G03*
X17307Y16535I-803J0D01*
G01*
X15243Y16949D02*
G03*
X15657Y16535I413J0D01*
G01*
X17156Y14055D02*
G03*
X17717Y14616I0J561D01*
G01*
X15514Y14174D02*
G03*
X15887Y14055I373J525D01*
G01*
X15243Y14699D02*
G03*
X15514Y14174I644J0D01*
G01*
X16722Y14360D02*
G03*
X16929Y14567I0J207D01*
G01*
X15514Y14559D02*
G03*
X15790Y14360I276J92D01*
G01*
X15499Y14651D02*
G03*
X15514Y14559I291J0D01*
G01*
X17717Y14616D02*
Y15551D01*
X18110Y12205D02*
Y15732D01*
X15657Y16535D02*
X17307D01*
X15887Y14055D02*
X17156D01*
X15499Y14651D02*
Y14699D01*
X15790Y14360D02*
X16722D01*
D48*
X12020Y19718D02*
X12093Y19646D01*
X12106D01*
X10486Y19718D02*
X12020D01*
X10414Y19646D02*
X10486Y19718D01*
X10400Y19646D02*
X10414D01*
X12093Y19921D02*
X12106D01*
X12020Y19848D02*
X12093Y19921D01*
X10400D02*
X10414D01*
X10486Y19848D01*
X12020D01*
D52*
X28755Y20288D02*
D03*
Y19288D02*
D03*
Y18288D02*
D03*
Y17288D02*
D03*
Y16288D02*
D03*
Y15288D02*
D03*
Y14288D02*
D03*
Y13288D02*
D03*
Y12288D02*
D03*
Y11288D02*
D03*
Y10288D02*
D03*
Y9288D02*
D03*
Y8288D02*
D03*
Y7288D02*
D03*
Y6288D02*
D03*
Y5288D02*
D03*
Y4288D02*
D03*
Y3288D02*
D03*
Y2288D02*
D03*
Y1288D02*
D03*
X27755D02*
D03*
Y19288D02*
D03*
Y18288D02*
D03*
Y17288D02*
D03*
Y16288D02*
D03*
Y15288D02*
D03*
Y14288D02*
D03*
Y13288D02*
D03*
Y12288D02*
D03*
Y11288D02*
D03*
Y10288D02*
D03*
Y9288D02*
D03*
Y8288D02*
D03*
Y7288D02*
D03*
Y6288D02*
D03*
Y5288D02*
D03*
Y4288D02*
D03*
Y3288D02*
D03*
Y2288D02*
D03*
X3755Y20288D02*
D03*
Y19288D02*
D03*
Y18288D02*
D03*
Y17288D02*
D03*
Y16288D02*
D03*
Y15288D02*
D03*
Y14288D02*
D03*
Y13288D02*
D03*
Y12288D02*
D03*
Y11288D02*
D03*
Y10288D02*
D03*
Y9288D02*
D03*
Y8288D02*
D03*
Y7288D02*
D03*
Y6288D02*
D03*
Y5288D02*
D03*
Y4288D02*
D03*
Y3288D02*
D03*
Y2288D02*
D03*
Y1288D02*
D03*
X2755D02*
D03*
Y19288D02*
D03*
Y18288D02*
D03*
Y17288D02*
D03*
Y16288D02*
D03*
Y15288D02*
D03*
Y14288D02*
D03*
Y13288D02*
D03*
Y12288D02*
D03*
Y11288D02*
D03*
Y10288D02*
D03*
Y9288D02*
D03*
Y8288D02*
D03*
Y7288D02*
D03*
Y6288D02*
D03*
Y5288D02*
D03*
Y4288D02*
D03*
Y3288D02*
D03*
Y2288D02*
D03*
D53*
X27755Y20288D02*
D03*
X2755D02*
D03*
D54*
X9970Y24016D02*
D03*
X13258D02*
D03*
D55*
X10738Y22835D02*
D03*
X12490D02*
D03*
D56*
X1385Y23221D02*
D03*
X30125D02*
D03*
D57*
X13504Y16929D02*
D03*
X12126Y22165D02*
D03*
X17717Y15551D02*
D03*
X19291Y19291D02*
D03*
Y10768D02*
D03*
X18504Y11811D02*
D03*
X16929Y14567D02*
D03*
X10400Y19646D02*
D03*
Y19921D02*
D03*
X12106D02*
D03*
Y19646D02*
D03*
X9449Y18288D02*
D03*
X15657Y19310D02*
D03*
X11358Y22299D02*
D03*
X9449Y16732D02*
D03*
X15755Y14699D02*
D03*
X15499D02*
D03*
X15243D02*
D03*
X15499Y18219D02*
D03*
X15243Y16949D02*
D03*
X14587Y14075D02*
D03*
M02*
