G04*
G04 #@! TF.GenerationSoftware,Altium Limited,Altium Designer,25.8.1 (18)*
G04*
G04 Layer_Color=65280*
%FSLAX24Y24*%
%MOIN*%
G70*
G04*
G04 #@! TF.SameCoordinates,09999318-E88C-4F9F-A6D3-71EC491E3F06*
G04*
G04*
G04 #@! TF.FilePolarity,Positive*
G04*
G01*
G75*
%ADD16C,0.0100*%
%ADD17C,0.0050*%
D16*
X2069Y-730D02*
Y-139D01*
X2364D01*
X2462Y-238D01*
Y-435D01*
X2364Y-533D01*
X2069D01*
X3052Y-238D02*
X2954Y-139D01*
X2757D01*
X2659Y-238D01*
Y-631D01*
X2757Y-730D01*
X2954D01*
X3052Y-631D01*
X3249Y-139D02*
Y-730D01*
X3544D01*
X3643Y-631D01*
Y-533D01*
X3544Y-435D01*
X3249D01*
X3544D01*
X3643Y-336D01*
Y-238D01*
X3544Y-139D01*
X3249D01*
X4725D02*
X4528D01*
X4430Y-238D01*
Y-631D01*
X4528Y-730D01*
X4725D01*
X4824Y-631D01*
Y-238D01*
X4725Y-139D01*
X5020Y-336D02*
Y-631D01*
X5119Y-730D01*
X5414D01*
Y-336D01*
X5709Y-238D02*
Y-336D01*
X5611D01*
X5807D01*
X5709D01*
Y-631D01*
X5807Y-730D01*
X6103D02*
X6299D01*
X6201D01*
Y-139D01*
X6103D01*
X6595Y-730D02*
X6791D01*
X6693D01*
Y-336D01*
X6595D01*
X7087Y-730D02*
Y-336D01*
X7382D01*
X7480Y-435D01*
Y-730D01*
X7972D02*
X7775D01*
X7677Y-631D01*
Y-435D01*
X7775Y-336D01*
X7972D01*
X8070Y-435D01*
Y-533D01*
X7677D01*
X2069Y-730D02*
Y-139D01*
X2364D01*
X2462Y-238D01*
Y-435D01*
X2364Y-533D01*
X2069D01*
X3052Y-238D02*
X2954Y-139D01*
X2757D01*
X2659Y-238D01*
Y-631D01*
X2757Y-730D01*
X2954D01*
X3052Y-631D01*
X3249Y-139D02*
Y-730D01*
X3544D01*
X3643Y-631D01*
Y-533D01*
X3544Y-435D01*
X3249D01*
X3544D01*
X3643Y-336D01*
Y-238D01*
X3544Y-139D01*
X3249D01*
X4725D02*
X4528D01*
X4430Y-238D01*
Y-631D01*
X4528Y-730D01*
X4725D01*
X4824Y-631D01*
Y-238D01*
X4725Y-139D01*
X5020Y-336D02*
Y-631D01*
X5119Y-730D01*
X5414D01*
Y-336D01*
X5709Y-238D02*
Y-336D01*
X5611D01*
X5807D01*
X5709D01*
Y-631D01*
X5807Y-730D01*
X6103D02*
X6299D01*
X6201D01*
Y-139D01*
X6103D01*
X6595Y-730D02*
X6791D01*
X6693D01*
Y-336D01*
X6595D01*
X7087Y-730D02*
Y-336D01*
X7382D01*
X7480Y-435D01*
Y-730D01*
X7972D02*
X7775D01*
X7677Y-631D01*
Y-435D01*
X7775Y-336D01*
X7972D01*
X8070Y-435D01*
Y-533D01*
X7677D01*
D17*
X1072Y24606D02*
G03*
X0Y23534I0J-1072D01*
G01*
X31496Y23599D02*
G03*
X30489Y24606I-1007J0D01*
G01*
X30489Y0D02*
G03*
X31496Y1007I0J1007D01*
G01*
X0D02*
G03*
X1007Y0I1007J0D01*
G01*
X0Y1181D02*
Y23534D01*
X1072Y24606D02*
X30489D01*
X31496Y1007D02*
Y23599D01*
X1007Y0D02*
X30489D01*
X0Y1007D02*
Y1181D01*
X1072Y24606D02*
G03*
X0Y23534I0J-1072D01*
G01*
X31496Y23599D02*
G03*
X30489Y24606I-1007J0D01*
G01*
X30489Y0D02*
G03*
X31496Y1007I0J1007D01*
G01*
X0D02*
G03*
X1007Y0I1007J0D01*
G01*
X0Y1181D02*
Y23534D01*
X1072Y24606D02*
X30489D01*
X31496Y1007D02*
Y23599D01*
X1007Y0D02*
X30489D01*
X0Y1007D02*
Y1181D01*
M02*
