G04*
G04 #@! TF.GenerationSoftware,Altium Limited,Altium Designer,25.8.1 (18)*
G04*
G04 Layer_Color=12429013*
%FSLAX24Y24*%
%MOIN*%
G70*
G04*
G04 #@! TF.SameCoordinates,09999318-E88C-4F9F-A6D3-71EC491E3F06*
G04*
G04*
G04 #@! TF.FilePolarity,Negative*
G04*
G01*
G75*
%ADD16C,0.0100*%
%ADD17C,0.0050*%
%ADD33C,0.0740*%
%ADD34R,0.0740X0.0740*%
G04:AMPARAMS|DCode=35|XSize=43.4mil|YSize=78.8mil|CornerRadius=21.7mil|HoleSize=0mil|Usage=FLASHONLY|Rotation=180.000|XOffset=0mil|YOffset=0mil|HoleType=Round|Shape=RoundedRectangle|*
%AMROUNDEDRECTD35*
21,1,0.0434,0.0354,0,0,180.0*
21,1,0.0000,0.0788,0,0,180.0*
1,1,0.0434,0.0000,0.0177*
1,1,0.0434,0.0000,0.0177*
1,1,0.0434,0.0000,-0.0177*
1,1,0.0434,0.0000,-0.0177*
%
%ADD35ROUNDEDRECTD35*%
G04:AMPARAMS|DCode=36|XSize=45.3mil|YSize=53.2mil|CornerRadius=22.7mil|HoleSize=0mil|Usage=FLASHONLY|Rotation=180.000|XOffset=0mil|YOffset=0mil|HoleType=Round|Shape=RoundedRectangle|*
%AMROUNDEDRECTD36*
21,1,0.0453,0.0079,0,0,180.0*
21,1,0.0000,0.0532,0,0,180.0*
1,1,0.0453,0.0000,0.0039*
1,1,0.0453,0.0000,0.0039*
1,1,0.0453,0.0000,-0.0039*
1,1,0.0453,0.0000,-0.0039*
%
%ADD36ROUNDEDRECTD36*%
D16*
X15848Y-2069D02*
Y-2659D01*
X16143D01*
X16242Y-2560D01*
Y-2462D01*
X16143Y-2364D01*
X15848D01*
X16143D01*
X16242Y-2265D01*
Y-2167D01*
X16143Y-2069D01*
X15848D01*
X16537Y-2659D02*
X16734D01*
X16832Y-2560D01*
Y-2364D01*
X16734Y-2265D01*
X16537D01*
X16438Y-2364D01*
Y-2560D01*
X16537Y-2659D01*
X17127Y-2167D02*
Y-2265D01*
X17029D01*
X17226D01*
X17127D01*
Y-2560D01*
X17226Y-2659D01*
X17619Y-2167D02*
Y-2265D01*
X17521D01*
X17718D01*
X17619D01*
Y-2560D01*
X17718Y-2659D01*
X18111D02*
X18308D01*
X18406Y-2560D01*
Y-2364D01*
X18308Y-2265D01*
X18111D01*
X18013Y-2364D01*
Y-2560D01*
X18111Y-2659D01*
X18603D02*
Y-2265D01*
X18701D01*
X18800Y-2364D01*
Y-2659D01*
Y-2364D01*
X18898Y-2265D01*
X18997Y-2364D01*
Y-2659D01*
X20177Y-2167D02*
X20079Y-2069D01*
X19882D01*
X19784Y-2167D01*
Y-2265D01*
X19882Y-2364D01*
X20079D01*
X20177Y-2462D01*
Y-2560D01*
X20079Y-2659D01*
X19882D01*
X19784Y-2560D01*
X20473Y-2659D02*
X20669D01*
X20768Y-2560D01*
Y-2364D01*
X20669Y-2265D01*
X20473D01*
X20374Y-2364D01*
Y-2560D01*
X20473Y-2659D01*
X20964D02*
X21161D01*
X21063D01*
Y-2069D01*
X20964D01*
X21850D02*
Y-2659D01*
X21555D01*
X21456Y-2560D01*
Y-2364D01*
X21555Y-2265D01*
X21850D01*
X22342Y-2659D02*
X22145D01*
X22047Y-2560D01*
Y-2364D01*
X22145Y-2265D01*
X22342D01*
X22440Y-2364D01*
Y-2462D01*
X22047D01*
X22637Y-2265D02*
Y-2659D01*
Y-2462D01*
X22736Y-2364D01*
X22834Y-2265D01*
X22932D01*
X23228Y-2659D02*
Y-2265D01*
X23326D01*
X23424Y-2364D01*
Y-2659D01*
Y-2364D01*
X23523Y-2265D01*
X23621Y-2364D01*
Y-2659D01*
X23916Y-2265D02*
X24113D01*
X24211Y-2364D01*
Y-2659D01*
X23916D01*
X23818Y-2560D01*
X23916Y-2462D01*
X24211D01*
X24408Y-2659D02*
X24703D01*
X24802Y-2560D01*
X24703Y-2462D01*
X24507D01*
X24408Y-2364D01*
X24507Y-2265D01*
X24802D01*
X24999Y-2659D02*
Y-2069D01*
Y-2462D02*
X25294Y-2265D01*
X24999Y-2462D02*
X25294Y-2659D01*
X2069Y-730D02*
Y-139D01*
X2364D01*
X2462Y-238D01*
Y-435D01*
X2364Y-533D01*
X2069D01*
X3052Y-238D02*
X2954Y-139D01*
X2757D01*
X2659Y-238D01*
Y-631D01*
X2757Y-730D01*
X2954D01*
X3052Y-631D01*
X3249Y-139D02*
Y-730D01*
X3544D01*
X3643Y-631D01*
Y-533D01*
X3544Y-435D01*
X3249D01*
X3544D01*
X3643Y-336D01*
Y-238D01*
X3544Y-139D01*
X3249D01*
X4725D02*
X4528D01*
X4430Y-238D01*
Y-631D01*
X4528Y-730D01*
X4725D01*
X4824Y-631D01*
Y-238D01*
X4725Y-139D01*
X5020Y-336D02*
Y-631D01*
X5119Y-730D01*
X5414D01*
Y-336D01*
X5709Y-238D02*
Y-336D01*
X5611D01*
X5807D01*
X5709D01*
Y-631D01*
X5807Y-730D01*
X6103D02*
X6299D01*
X6201D01*
Y-139D01*
X6103D01*
X6595Y-730D02*
X6791D01*
X6693D01*
Y-336D01*
X6595D01*
X7087Y-730D02*
Y-336D01*
X7382D01*
X7480Y-435D01*
Y-730D01*
X7972D02*
X7775D01*
X7677Y-631D01*
Y-435D01*
X7775Y-336D01*
X7972D01*
X8070Y-435D01*
Y-533D01*
X7677D01*
D17*
X1072Y24606D02*
G03*
X0Y23534I0J-1072D01*
G01*
X31496Y23599D02*
G03*
X30489Y24606I-1007J0D01*
G01*
X30489Y0D02*
G03*
X31496Y1007I0J1007D01*
G01*
X0D02*
G03*
X1007Y0I1007J0D01*
G01*
X0Y1181D02*
Y23534D01*
X1072Y24606D02*
X30489D01*
X31496Y1007D02*
Y23599D01*
X1007Y0D02*
X30489D01*
X0Y1007D02*
Y1181D01*
D33*
X28755Y20288D02*
D03*
Y19288D02*
D03*
Y18288D02*
D03*
Y17288D02*
D03*
Y16288D02*
D03*
Y15288D02*
D03*
Y14288D02*
D03*
Y13288D02*
D03*
Y12288D02*
D03*
Y11288D02*
D03*
Y10288D02*
D03*
Y9288D02*
D03*
Y8288D02*
D03*
Y7288D02*
D03*
Y6288D02*
D03*
Y5288D02*
D03*
Y4288D02*
D03*
Y3288D02*
D03*
Y2288D02*
D03*
Y1288D02*
D03*
X27755D02*
D03*
Y19288D02*
D03*
Y18288D02*
D03*
Y17288D02*
D03*
Y16288D02*
D03*
Y15288D02*
D03*
Y14288D02*
D03*
Y13288D02*
D03*
Y12288D02*
D03*
Y11288D02*
D03*
Y10288D02*
D03*
Y9288D02*
D03*
Y8288D02*
D03*
Y7288D02*
D03*
Y6288D02*
D03*
Y5288D02*
D03*
Y4288D02*
D03*
Y3288D02*
D03*
Y2288D02*
D03*
X3755Y20288D02*
D03*
Y19288D02*
D03*
Y18288D02*
D03*
Y17288D02*
D03*
Y16288D02*
D03*
Y15288D02*
D03*
Y14288D02*
D03*
Y13288D02*
D03*
Y12288D02*
D03*
Y11288D02*
D03*
Y10288D02*
D03*
Y9288D02*
D03*
Y8288D02*
D03*
Y7288D02*
D03*
Y6288D02*
D03*
Y5288D02*
D03*
Y4288D02*
D03*
Y3288D02*
D03*
Y2288D02*
D03*
Y1288D02*
D03*
X2755D02*
D03*
Y19288D02*
D03*
Y18288D02*
D03*
Y17288D02*
D03*
Y16288D02*
D03*
Y15288D02*
D03*
Y14288D02*
D03*
Y13288D02*
D03*
Y12288D02*
D03*
Y11288D02*
D03*
Y10288D02*
D03*
Y9288D02*
D03*
Y8288D02*
D03*
Y7288D02*
D03*
Y6288D02*
D03*
Y5288D02*
D03*
Y4288D02*
D03*
Y3288D02*
D03*
Y2288D02*
D03*
D34*
X27755Y20288D02*
D03*
X2755D02*
D03*
D35*
X9970Y24016D02*
D03*
X13258D02*
D03*
D36*
X10738Y22835D02*
D03*
X12490D02*
D03*
M02*
