G04*
G04 #@! TF.GenerationSoftware,Altium Limited,Altium Designer,25.8.1 (18)*
G04*
G04 Layer_Color=8421504*
%FSLAX24Y24*%
%MOIN*%
G70*
G04*
G04 #@! TF.SameCoordinates,09999318-E88C-4F9F-A6D3-71EC491E3F06*
G04*
G04*
G04 #@! TF.FilePolarity,Positive*
G04*
G01*
G75*
%ADD16C,0.0100*%
%ADD17C,0.0050*%
%ADD18R,0.0354X0.0314*%
%ADD19R,0.0314X0.0354*%
%ADD20R,0.0216X0.0137*%
%ADD21R,0.0117X0.0491*%
%ADD22R,0.0669X0.0708*%
%ADD23O,0.0137X0.0511*%
%ADD24R,0.0039X0.0226*%
G36*
X10570Y23662D02*
X9991D01*
Y24370D01*
X10570D01*
Y23662D01*
D02*
G37*
G36*
X13238D02*
X12658D01*
Y24370D01*
X13238D01*
Y23662D01*
D02*
G37*
D16*
X2069Y-3053D02*
X2462D01*
X2265D01*
Y-3643D01*
X2757D02*
X2954D01*
X3052Y-3545D01*
Y-3348D01*
X2954Y-3250D01*
X2757D01*
X2659Y-3348D01*
Y-3545D01*
X2757Y-3643D01*
X3249Y-3840D02*
Y-3250D01*
X3544D01*
X3643Y-3348D01*
Y-3545D01*
X3544Y-3643D01*
X3249D01*
X4824Y-3151D02*
X4725Y-3053D01*
X4528D01*
X4430Y-3151D01*
Y-3250D01*
X4528Y-3348D01*
X4725D01*
X4824Y-3446D01*
Y-3545D01*
X4725Y-3643D01*
X4528D01*
X4430Y-3545D01*
X5119Y-3643D02*
X5315D01*
X5414Y-3545D01*
Y-3348D01*
X5315Y-3250D01*
X5119D01*
X5020Y-3348D01*
Y-3545D01*
X5119Y-3643D01*
X5611D02*
X5807D01*
X5709D01*
Y-3053D01*
X5611D01*
X6496D02*
Y-3643D01*
X6201D01*
X6103Y-3545D01*
Y-3348D01*
X6201Y-3250D01*
X6496D01*
X6988Y-3643D02*
X6791D01*
X6693Y-3545D01*
Y-3348D01*
X6791Y-3250D01*
X6988D01*
X7087Y-3348D01*
Y-3446D01*
X6693D01*
X7283Y-3250D02*
Y-3643D01*
Y-3446D01*
X7382Y-3348D01*
X7480Y-3250D01*
X7579D01*
X8464Y-3643D02*
Y-3053D01*
X8759D01*
X8858Y-3151D01*
Y-3348D01*
X8759Y-3446D01*
X8464D01*
X9153Y-3250D02*
X9350D01*
X9448Y-3348D01*
Y-3643D01*
X9153D01*
X9054Y-3545D01*
X9153Y-3446D01*
X9448D01*
X9645Y-3643D02*
X9940D01*
X10038Y-3545D01*
X9940Y-3446D01*
X9743D01*
X9645Y-3348D01*
X9743Y-3250D01*
X10038D01*
X10334Y-3151D02*
Y-3250D01*
X10235D01*
X10432D01*
X10334D01*
Y-3545D01*
X10432Y-3643D01*
X11022D02*
X10826D01*
X10727Y-3545D01*
Y-3348D01*
X10826Y-3250D01*
X11022D01*
X11121Y-3348D01*
Y-3446D01*
X10727D01*
X2069Y-730D02*
Y-139D01*
X2364D01*
X2462Y-238D01*
Y-435D01*
X2364Y-533D01*
X2069D01*
X3052Y-238D02*
X2954Y-139D01*
X2757D01*
X2659Y-238D01*
Y-631D01*
X2757Y-730D01*
X2954D01*
X3052Y-631D01*
X3249Y-139D02*
Y-730D01*
X3544D01*
X3643Y-631D01*
Y-533D01*
X3544Y-435D01*
X3249D01*
X3544D01*
X3643Y-336D01*
Y-238D01*
X3544Y-139D01*
X3249D01*
X4725D02*
X4528D01*
X4430Y-238D01*
Y-631D01*
X4528Y-730D01*
X4725D01*
X4824Y-631D01*
Y-238D01*
X4725Y-139D01*
X5020Y-336D02*
Y-631D01*
X5119Y-730D01*
X5414D01*
Y-336D01*
X5709Y-238D02*
Y-336D01*
X5611D01*
X5807D01*
X5709D01*
Y-631D01*
X5807Y-730D01*
X6103D02*
X6299D01*
X6201D01*
Y-139D01*
X6103D01*
X6595Y-730D02*
X6791D01*
X6693D01*
Y-336D01*
X6595D01*
X7087Y-730D02*
Y-336D01*
X7382D01*
X7480Y-435D01*
Y-730D01*
X7972D02*
X7775D01*
X7677Y-631D01*
Y-435D01*
X7775Y-336D01*
X7972D01*
X8070Y-435D01*
Y-533D01*
X7677D01*
D17*
X1072Y24606D02*
G03*
X0Y23534I0J-1072D01*
G01*
X31496Y23599D02*
G03*
X30489Y24606I-1007J0D01*
G01*
X30489Y0D02*
G03*
X31496Y1007I0J1007D01*
G01*
X0D02*
G03*
X1007Y0I1007J0D01*
G01*
X0Y1181D02*
Y23534D01*
X1072Y24606D02*
X30489D01*
X31496Y1007D02*
Y23599D01*
X1007Y0D02*
X30489D01*
X0Y1007D02*
Y1181D01*
D18*
X19291Y11181D02*
D03*
Y11811D02*
D03*
Y18898D02*
D03*
Y18268D02*
D03*
D19*
X9764Y20079D02*
D03*
X9134D02*
D03*
X9764Y19488D02*
D03*
X9134D02*
D03*
X14443Y18406D02*
D03*
X13813D02*
D03*
X12874Y15256D02*
D03*
X13504D02*
D03*
X14587Y14468D02*
D03*
X13957D02*
D03*
X15027Y18701D02*
D03*
X15657D02*
D03*
D20*
X8406Y19626D02*
D03*
Y19941D02*
D03*
X7736Y19626D02*
D03*
Y19941D02*
D03*
D21*
X12126Y22963D02*
D03*
X11870D02*
D03*
X11614D02*
D03*
X11358D02*
D03*
X11102D02*
D03*
D22*
X12067Y24016D02*
D03*
X11161D02*
D03*
D23*
X16011Y17598D02*
D03*
X15755D02*
D03*
X15499D02*
D03*
X15243D02*
D03*
X14987D02*
D03*
X14731D02*
D03*
X14476D02*
D03*
X16011Y15276D02*
D03*
X15755D02*
D03*
X15499D02*
D03*
X15243D02*
D03*
X14987D02*
D03*
X14731D02*
D03*
X14476D02*
D03*
D24*
X11654Y21088D02*
D03*
X11811D02*
D03*
X11968D02*
D03*
X11654Y21432D02*
D03*
X11811D02*
D03*
X11968D02*
D03*
M02*
